<svg width="177" height="132" viewBox="0 0 177 132" fill="none" xmlns="http://www.w3.org/2000/svg">
<path d="M31.3828 120.016C30.9974 119.995 30.6276 119.938 30.2734 119.844C29.9297 119.74 29.5859 119.62 29.2422 119.484C28.8984 119.349 28.5547 119.214 28.2109 119.078C27.8672 118.932 27.5078 118.812 27.1328 118.719C26.7682 118.615 26.3776 118.547 25.9609 118.516C25.5547 118.474 25.112 118.495 24.6328 118.578C24.4974 118.609 24.3516 118.682 24.1953 118.797C24.0495 118.911 23.9089 119.036 23.7734 119.172C23.638 119.307 23.5182 119.438 23.4141 119.562C23.3099 119.677 23.237 119.755 23.1953 119.797C23.1745 119.797 23.138 119.802 23.0859 119.812C23.0443 119.812 23.013 119.812 22.9922 119.812C22.7109 119.812 22.5703 119.672 22.5703 119.391C22.5703 119.37 22.5703 119.339 22.5703 119.297C22.5807 119.245 22.5859 119.208 22.5859 119.188C23.2526 118.531 23.9193 117.875 24.5859 117.219C25.2526 116.552 25.8776 115.865 26.4609 115.156C27.0547 114.448 27.5807 113.703 28.0391 112.922C28.5078 112.13 28.8724 111.281 29.1328 110.375C28.7161 110.406 28.2682 110.448 27.7891 110.5C27.3203 110.552 26.8516 110.635 26.3828 110.75C25.9141 110.854 25.4661 111 25.0391 111.188C24.612 111.365 24.237 111.604 23.9141 111.906C23.7578 111.906 23.6641 111.849 23.6328 111.734C23.6016 111.609 23.5859 111.49 23.5859 111.375C23.5859 111.281 23.5859 111.214 23.5859 111.172C23.5964 111.12 23.612 111.083 23.6328 111.062C23.6641 111.031 23.7057 111.005 23.7578 110.984C23.8203 110.964 23.9089 110.927 24.0234 110.875C24.4193 110.719 24.8359 110.547 25.2734 110.359C25.7109 110.172 26.1536 110 26.6016 109.844C27.0599 109.677 27.5182 109.536 27.9766 109.422C28.4453 109.307 28.9141 109.25 29.3828 109.25C29.4141 109.25 29.4609 109.25 29.5234 109.25C29.5964 109.25 29.6693 109.255 29.7422 109.266C29.8151 109.266 29.8828 109.266 29.9453 109.266C30.0182 109.266 30.0651 109.266 30.0859 109.266C30.3047 109.349 30.4297 109.458 30.4609 109.594C30.4922 109.729 30.5078 109.88 30.5078 110.047C30.5078 110.359 30.4766 110.635 30.4141 110.875C30.3516 111.104 30.2422 111.38 30.0859 111.703C29.763 112.161 29.4089 112.656 29.0234 113.188C28.638 113.708 28.2318 114.24 27.8047 114.781C27.388 115.323 26.9609 115.854 26.5234 116.375C26.0859 116.885 25.6536 117.354 25.2266 117.781C25.3828 117.771 25.6068 117.76 25.8984 117.75C26.1901 117.729 26.5026 117.724 26.8359 117.734C27.1797 117.734 27.513 117.755 27.8359 117.797C28.1693 117.828 28.4505 117.885 28.6797 117.969C28.9401 118.073 29.1745 118.188 29.3828 118.312C29.6016 118.427 29.8099 118.536 30.0078 118.641C30.2161 118.734 30.4297 118.818 30.6484 118.891C30.8672 118.953 31.112 118.984 31.3828 118.984C31.8516 118.984 32.3099 118.927 32.7578 118.812C33.2057 118.698 33.6484 118.578 34.0859 118.453C34.5234 118.318 34.9453 118.193 35.3516 118.078C35.7682 117.964 36.1693 117.906 36.5547 117.906V118.172C36.5547 118.182 36.4974 118.224 36.3828 118.297C36.2786 118.359 36.1536 118.438 36.0078 118.531C35.862 118.615 35.7057 118.698 35.5391 118.781C35.3828 118.865 35.2526 118.932 35.1484 118.984C34.5026 119.286 33.8828 119.536 33.2891 119.734C32.7057 119.922 32.0703 120.016 31.3828 120.016ZM36.1172 118.453C36.1172 117.932 36.263 117.422 36.5547 116.922C36.8568 116.422 37.237 115.979 37.6953 115.594C38.1536 115.208 38.6589 114.901 39.2109 114.672C39.763 114.432 40.2891 114.312 40.7891 114.312C40.987 114.312 41.1745 114.349 41.3516 114.422C41.5286 114.495 41.7161 114.531 41.9141 114.531H42.0078C42.0599 114.417 42.1589 114.214 42.3047 113.922C42.4609 113.63 42.6224 113.323 42.7891 113C42.9661 112.677 43.1328 112.375 43.2891 112.094C43.4453 111.802 43.5599 111.599 43.6328 111.484C43.7474 111.286 43.9036 111.042 44.1016 110.75C44.2995 110.448 44.4922 110.156 44.6797 109.875C44.8776 109.594 45.0495 109.354 45.1953 109.156C45.3411 108.958 45.4245 108.859 45.4453 108.859L46.0547 109.469C46.0547 109.49 46.013 109.583 45.9297 109.75C45.8568 109.917 45.7578 110.135 45.6328 110.406C45.5078 110.667 45.362 110.958 45.1953 111.281C45.0391 111.604 44.8776 111.927 44.7109 112.25C44.5443 112.573 44.3828 112.885 44.2266 113.188C44.0807 113.479 43.9505 113.724 43.8359 113.922C43.513 114.411 43.1849 114.911 42.8516 115.422C42.5286 115.922 42.2682 116.391 42.0703 116.828C41.8828 117.255 41.7891 117.63 41.7891 117.953C41.7995 118.276 41.9766 118.5 42.3203 118.625C42.9453 118.51 43.4141 118.464 43.7266 118.484C44.0391 118.505 44.2318 118.562 44.3047 118.656C44.388 118.74 44.3776 118.844 44.2734 118.969C44.1693 119.083 44.0026 119.188 43.7734 119.281C43.5547 119.375 43.2995 119.438 43.0078 119.469C42.7161 119.5 42.4245 119.469 42.1328 119.375C41.8411 119.281 41.5755 119.109 41.3359 118.859C41.0964 118.609 40.9141 118.25 40.7891 117.781L38.3672 119.797C38.3672 119.797 38.3255 119.807 38.2422 119.828C38.1693 119.849 38.0755 119.87 37.9609 119.891C37.8568 119.911 37.7474 119.932 37.6328 119.953C37.5182 119.974 37.4245 119.99 37.3516 120H37.2578C37.0182 120 36.8203 119.958 36.6641 119.875C36.5182 119.781 36.4036 119.667 36.3203 119.531C36.237 119.385 36.1797 119.219 36.1484 119.031C36.1276 118.844 36.1172 118.651 36.1172 118.453ZM37.1328 118.281C37.1328 118.344 37.1276 118.417 37.1172 118.5C37.1172 118.583 37.1224 118.661 37.1328 118.734C37.1536 118.797 37.1849 118.854 37.2266 118.906C37.2786 118.958 37.3516 118.984 37.4453 118.984C37.5807 118.984 37.7422 118.938 37.9297 118.844C38.1276 118.74 38.3203 118.62 38.5078 118.484C38.6953 118.349 38.8672 118.214 39.0234 118.078C39.1901 117.943 39.3099 117.844 39.3828 117.781C39.4557 117.708 39.5911 117.578 39.7891 117.391C39.987 117.193 40.1901 116.984 40.3984 116.766C40.6172 116.547 40.8203 116.344 41.0078 116.156C41.1953 115.969 41.3255 115.833 41.3984 115.75V115.703C41.3984 115.682 41.3984 115.672 41.3984 115.672C41.4089 115.661 41.4141 115.651 41.4141 115.641C41.4141 115.547 41.3828 115.479 41.3203 115.438C41.2682 115.385 41.2005 115.354 41.1172 115.344C41.0443 115.323 40.9661 115.318 40.8828 115.328C40.7995 115.328 40.7318 115.328 40.6797 115.328C40.3047 115.328 39.9089 115.406 39.4922 115.562C39.0755 115.719 38.6901 115.932 38.3359 116.203C37.9922 116.464 37.7057 116.776 37.4766 117.141C37.2474 117.495 37.1328 117.875 37.1328 118.281ZM47.6797 118.797C47.6797 118.484 47.7422 118.198 47.8672 117.938C48.0026 117.667 48.1484 117.411 48.3047 117.172C48.4609 116.932 48.6016 116.693 48.7266 116.453C48.862 116.214 48.9297 115.958 48.9297 115.688C48.9297 115.625 48.9245 115.552 48.9141 115.469C48.9141 115.375 48.9036 115.286 48.8828 115.203C48.8724 115.12 48.8411 115.052 48.7891 115C48.7474 114.938 48.6901 114.906 48.6172 114.906C48.6068 114.906 48.5859 114.911 48.5547 114.922C48.5339 114.922 48.5234 114.927 48.5234 114.938C48.3776 115.135 48.2005 115.359 47.9922 115.609C47.7943 115.849 47.5807 116.089 47.3516 116.328C47.1224 116.568 46.8984 116.797 46.6797 117.016C46.4609 117.234 46.263 117.417 46.0859 117.562C45.9609 117.677 45.7891 117.833 45.5703 118.031C45.362 118.229 45.1484 118.427 44.9297 118.625C44.7214 118.812 44.5339 118.979 44.3672 119.125C44.2109 119.271 44.1224 119.344 44.1016 119.344L43.3828 118.734C43.4766 118.734 43.5703 118.714 43.6641 118.672C43.7474 118.63 43.8307 118.583 43.9141 118.531C44.5391 118.115 45.1016 117.635 45.6016 117.094C46.112 116.552 46.612 115.969 47.1016 115.344C47.1224 115.312 47.1745 115.224 47.2578 115.078C47.3516 114.922 47.4505 114.75 47.5547 114.562C47.6589 114.365 47.763 114.172 47.8672 113.984C47.9714 113.786 48.0495 113.63 48.1016 113.516C48.1641 113.38 48.2005 113.271 48.2109 113.188C48.2318 113.104 48.2474 113.042 48.2578 113C48.2786 112.948 48.3099 112.911 48.3516 112.891C48.3932 112.87 48.4818 112.859 48.6172 112.859C48.638 112.859 48.6849 112.865 48.7578 112.875C48.8411 112.885 48.8932 112.896 48.9141 112.906C49.0495 113.188 49.1693 113.438 49.2734 113.656C49.3776 113.875 49.4661 114.083 49.5391 114.281C49.612 114.469 49.6641 114.661 49.6953 114.859C49.737 115.057 49.7578 115.276 49.7578 115.516C49.6224 115.859 49.4714 116.214 49.3047 116.578C49.138 116.932 48.9974 117.271 48.8828 117.594C48.7682 117.917 48.6953 118.208 48.6641 118.469C48.6432 118.729 48.7005 118.938 48.8359 119.094C48.9818 119.24 49.2214 119.318 49.5547 119.328C49.8984 119.339 50.3828 119.25 51.0078 119.062C51.1745 119.146 51.1901 119.25 51.0547 119.375C50.9193 119.49 50.7109 119.599 50.4297 119.703C50.1589 119.807 49.8568 119.896 49.5234 119.969C49.2005 120.031 48.9297 120.047 48.7109 120.016C48.513 120.016 48.3464 119.984 48.2109 119.922C48.0859 119.849 47.9818 119.755 47.8984 119.641C47.8255 119.526 47.7682 119.396 47.7266 119.25C47.6953 119.104 47.6797 118.953 47.6797 118.797ZM50.4141 118.688C50.4141 118.646 50.4141 118.562 50.4141 118.438C50.4245 118.302 50.4297 118.214 50.4297 118.172C50.763 117.411 51.1901 116.708 51.7109 116.062C52.2318 115.417 52.8203 114.844 53.4766 114.344C53.4974 114.344 53.5286 114.339 53.5703 114.328C53.6224 114.307 53.6589 114.297 53.6797 114.297C53.9609 114.297 54.1901 114.359 54.3672 114.484C54.5547 114.599 54.7005 114.755 54.8047 114.953C54.9193 115.141 54.9974 115.354 55.0391 115.594C55.0807 115.823 55.1016 116.047 55.1016 116.266C55.1016 116.672 55.0078 117.099 54.8203 117.547C54.6328 117.984 54.3776 118.391 54.0547 118.766C53.7422 119.13 53.3828 119.432 52.9766 119.672C52.5703 119.901 52.1484 120.016 51.7109 120.016C51.2734 120.016 50.9453 119.901 50.7266 119.672C50.5182 119.432 50.4141 119.104 50.4141 118.688ZM51.6328 118.5C51.6328 118.615 51.6797 118.693 51.7734 118.734C51.8672 118.776 51.9609 118.797 52.0547 118.797C52.3151 118.797 52.5651 118.729 52.8047 118.594C53.0547 118.448 53.2734 118.271 53.4609 118.062C53.6589 117.844 53.8151 117.604 53.9297 117.344C54.0443 117.083 54.1016 116.833 54.1016 116.594C54.1016 116.479 54.0911 116.354 54.0703 116.219C54.0599 116.073 54.0286 115.948 53.9766 115.844C53.9245 115.729 53.8411 115.641 53.7266 115.578C53.6224 115.516 53.4714 115.505 53.2734 115.547C53.1276 115.578 52.9609 115.714 52.7734 115.953C52.5859 116.193 52.4036 116.474 52.2266 116.797C52.0599 117.109 51.9193 117.427 51.8047 117.75C51.6901 118.062 51.6328 118.312 51.6328 118.5ZM55.6953 118.984C55.737 118.557 55.8516 118.167 56.0391 117.812C56.237 117.448 56.4661 117.104 56.7266 116.781C56.9974 116.448 57.2734 116.135 57.5547 115.844C57.8464 115.542 58.1068 115.24 58.3359 114.938C58.513 114.938 58.6276 114.979 58.6797 115.062C58.7422 115.135 58.7734 115.229 58.7734 115.344C58.6901 115.438 58.5599 115.609 58.3828 115.859C58.2057 116.099 58.0234 116.359 57.8359 116.641C57.6589 116.922 57.4974 117.188 57.3516 117.438C57.2161 117.688 57.138 117.865 57.1172 117.969C57.0339 118.281 57.0339 118.479 57.1172 118.562C57.2109 118.635 57.3568 118.635 57.5547 118.562C57.763 118.479 58.0078 118.339 58.2891 118.141C58.5703 117.932 58.8568 117.703 59.1484 117.453C59.4505 117.203 59.7422 116.943 60.0234 116.672C60.3047 116.401 60.5495 116.161 60.7578 115.953H61.4453C61.4453 116.13 61.4193 116.302 61.3672 116.469C61.3151 116.625 61.2578 116.781 61.1953 116.938C61.1328 117.094 61.0755 117.25 61.0234 117.406C60.9714 117.562 60.9453 117.724 60.9453 117.891C60.9453 118.13 61.0182 118.276 61.1641 118.328C61.3203 118.38 61.4974 118.406 61.6953 118.406C61.9661 118.406 62.2474 118.354 62.5391 118.25C62.8411 118.135 63.1172 117.984 63.3672 117.797C63.6172 117.599 63.8203 117.375 63.9766 117.125C64.1432 116.865 64.2266 116.583 64.2266 116.281C64.2266 116.01 64.1849 115.766 64.1016 115.547C64.0286 115.318 63.9922 115.068 63.9922 114.797C63.9922 114.474 64.1693 114.312 64.5234 114.312C64.6797 114.312 64.8151 114.38 64.9297 114.516C65.0443 114.651 65.138 114.812 65.2109 115C65.2943 115.188 65.3516 115.38 65.3828 115.578C65.4245 115.776 65.4453 115.938 65.4453 116.062C65.4453 116.604 65.3151 117.083 65.0547 117.5C64.7943 117.917 64.4609 118.266 64.0547 118.547C63.6484 118.828 63.1953 119.042 62.6953 119.188C62.2057 119.333 61.7266 119.406 61.2578 119.406C60.862 119.406 60.5495 119.266 60.3203 118.984C60.0911 118.693 59.9714 118.354 59.9609 117.969C59.6589 118.062 59.3828 118.224 59.1328 118.453C58.8828 118.672 58.6328 118.901 58.3828 119.141C58.1328 119.37 57.8724 119.573 57.6016 119.75C57.3307 119.927 57.0339 120.016 56.7109 120.016C56.6276 120.016 56.5234 119.979 56.3984 119.906C56.2839 119.833 56.1693 119.745 56.0547 119.641C55.9505 119.536 55.862 119.427 55.7891 119.312C55.7161 119.188 55.6849 119.078 55.6953 118.984ZM64.9922 124.719C65.3255 124.177 65.7109 123.693 66.1484 123.266C66.5859 122.849 67.0339 122.453 67.4922 122.078C67.9609 121.703 68.4245 121.339 68.8828 120.984C69.3411 120.63 69.763 120.25 70.1484 119.844C70.5443 119.438 70.8828 118.99 71.1641 118.5C71.4453 118 71.638 117.422 71.7422 116.766C71.7422 116.745 71.737 116.714 71.7266 116.672C71.7266 116.62 71.7266 116.583 71.7266 116.562C71.487 116.844 71.1953 117.161 70.8516 117.516C70.5182 117.87 70.1536 118.203 69.7578 118.516C69.3724 118.828 68.9661 119.089 68.5391 119.297C68.112 119.505 67.6953 119.609 67.2891 119.609C67.1849 119.609 67.0495 119.604 66.8828 119.594C66.7266 119.573 66.5703 119.536 66.4141 119.484C66.2578 119.432 66.1224 119.359 66.0078 119.266C65.8932 119.172 65.8359 119.047 65.8359 118.891C65.8359 118.755 65.8724 118.547 65.9453 118.266C66.0182 117.984 66.1172 117.672 66.2422 117.328C66.3672 116.984 66.5078 116.635 66.6641 116.281C66.8203 115.927 66.987 115.604 67.1641 115.312C67.3411 115.021 67.513 114.781 67.6797 114.594C67.8568 114.406 68.0182 114.312 68.1641 114.312C68.3099 114.312 68.4349 114.344 68.5391 114.406C68.6432 114.469 68.6953 114.573 68.6953 114.719C68.6953 114.979 68.6016 115.24 68.4141 115.5C68.2266 115.76 68.0234 116.042 67.8047 116.344C67.5859 116.635 67.3828 116.953 67.1953 117.297C67.0078 117.641 66.9141 118.031 66.9141 118.469C67.6016 118.469 68.2214 118.328 68.7734 118.047C69.3255 117.755 69.8255 117.396 70.2734 116.969C70.7214 116.542 71.1172 116.078 71.4609 115.578C71.8047 115.078 72.1068 114.615 72.3672 114.188C72.638 113.76 72.8672 113.406 73.0547 113.125C73.2526 112.833 73.4193 112.688 73.5547 112.688C73.7526 112.688 73.8672 112.75 73.8984 112.875C73.9401 112.99 73.9609 113.135 73.9609 113.312C73.8672 113.635 73.737 114.016 73.5703 114.453C73.4036 114.88 73.2318 115.333 73.0547 115.812C72.888 116.281 72.7318 116.75 72.5859 117.219C72.4505 117.688 72.362 118.115 72.3203 118.5C72.3203 118.51 72.3203 118.526 72.3203 118.547C72.3307 118.568 72.3359 118.583 72.3359 118.594C72.5234 118.531 72.7005 118.422 72.8672 118.266C73.0339 118.109 73.1953 117.953 73.3516 117.797C73.5182 117.63 73.6849 117.484 73.8516 117.359C74.0182 117.224 74.1901 117.156 74.3672 117.156C74.3776 117.156 74.4141 117.229 74.4766 117.375C74.5495 117.521 74.5495 117.698 74.4766 117.906C74.3828 117.979 74.2109 118.104 73.9609 118.281C73.7214 118.458 73.4661 118.646 73.1953 118.844C72.9245 119.031 72.6693 119.219 72.4297 119.406C72.1901 119.583 72.0234 119.719 71.9297 119.812C71.7839 119.958 71.6328 120.167 71.4766 120.438C71.3203 120.708 71.1641 121.01 71.0078 121.344C70.8516 121.688 70.6953 122.047 70.5391 122.422C70.3932 122.797 70.2474 123.161 70.1016 123.516C69.9557 123.88 69.8099 124.214 69.6641 124.516C69.5286 124.828 69.4036 125.083 69.2891 125.281C69.237 125.365 69.1276 125.526 68.9609 125.766C68.8047 126.016 68.6276 126.281 68.4297 126.562C68.2422 126.844 68.0547 127.109 67.8672 127.359C67.6901 127.62 67.5547 127.802 67.4609 127.906C67.4193 127.958 67.3047 128.078 67.1172 128.266C66.9297 128.464 66.7161 128.677 66.4766 128.906C66.2474 129.146 66.0182 129.38 65.7891 129.609C65.5495 129.839 65.3672 130.01 65.2422 130.125C65.1172 130.198 64.9505 130.286 64.7422 130.391C64.5339 130.505 64.3203 130.599 64.1016 130.672C63.8724 130.745 63.6536 130.792 63.4453 130.812C63.2266 130.833 63.0495 130.786 62.9141 130.672C62.7786 130.568 62.7005 130.385 62.6797 130.125C62.6484 129.875 62.7057 129.516 62.8516 129.047C62.987 128.589 63.2266 128.005 63.5703 127.297C63.9141 126.589 64.388 125.729 64.9922 124.719ZM69.8984 121.359C69.8776 121.359 69.8411 121.365 69.7891 121.375C69.7474 121.396 69.7161 121.411 69.6953 121.422C69.6745 121.443 69.6276 121.479 69.5547 121.531C69.4818 121.583 69.3984 121.641 69.3047 121.703C69.2214 121.766 69.138 121.828 69.0547 121.891C68.9818 121.953 68.9297 122 68.8984 122.031C68.6068 122.24 68.2734 122.531 67.8984 122.906C67.5234 123.292 67.1328 123.714 66.7266 124.172C66.3307 124.641 65.9401 125.13 65.5547 125.641C65.1693 126.161 64.8255 126.656 64.5234 127.125C64.2109 127.604 63.9609 128.042 63.7734 128.438C63.5859 128.833 63.487 129.151 63.4766 129.391C63.4661 129.63 63.5651 129.771 63.7734 129.812C63.9818 129.854 64.3359 129.755 64.8359 129.516C64.9401 129.422 65.0911 129.281 65.2891 129.094C65.4766 128.917 65.6641 128.729 65.8516 128.531C66.0495 128.344 66.2266 128.167 66.3828 128C66.5391 127.844 66.6328 127.745 66.6641 127.703C66.7161 127.63 66.7995 127.516 66.9141 127.359C67.0286 127.203 67.1536 127.026 67.2891 126.828C67.4245 126.63 67.5651 126.422 67.7109 126.203C67.8568 125.984 67.9922 125.771 68.1172 125.562C68.2526 125.365 68.3672 125.188 68.4609 125.031C68.5651 124.875 68.638 124.755 68.6797 124.672C68.7734 124.505 68.888 124.266 69.0234 123.953C69.1693 123.651 69.3047 123.333 69.4297 123C69.5547 122.677 69.6641 122.365 69.7578 122.062C69.8516 121.76 69.8984 121.526 69.8984 121.359ZM82.2578 116.547C82.2578 116.38 82.2682 116.198 82.2891 116C82.3099 115.792 82.3568 115.604 82.4297 115.438C82.5026 115.271 82.6068 115.13 82.7422 115.016C82.888 114.901 83.0807 114.844 83.3203 114.844C83.3203 114.979 83.3047 115.104 83.2734 115.219C83.2526 115.333 83.2214 115.448 83.1797 115.562C83.1484 115.677 83.1172 115.802 83.0859 115.938C83.0651 116.062 83.0547 116.203 83.0547 116.359C83.0547 116.755 83.1068 117.125 83.2109 117.469C83.3151 117.812 83.4714 118.115 83.6797 118.375C83.8984 118.625 84.1641 118.823 84.4766 118.969C84.7995 119.115 85.1797 119.188 85.6172 119.188C85.8047 119.188 86.0339 119.146 86.3047 119.062C86.5755 118.979 86.8464 118.88 87.1172 118.766C87.388 118.651 87.638 118.536 87.8672 118.422C88.0964 118.307 88.2578 118.224 88.3516 118.172C88.5807 118.047 88.763 117.875 88.8984 117.656C89.0339 117.427 89.138 117.182 89.2109 116.922C89.2839 116.651 89.3307 116.38 89.3516 116.109C89.3724 115.828 89.3828 115.578 89.3828 115.359C89.3828 115.005 89.3464 114.661 89.2734 114.328C89.2109 113.984 89.138 113.646 89.0547 113.312C88.9818 112.979 88.9089 112.646 88.8359 112.312C88.7734 111.979 88.7422 111.641 88.7422 111.297C88.8568 110.974 89.0339 110.682 89.2734 110.422C89.5234 110.151 89.8047 109.922 90.1172 109.734C90.4401 109.536 90.7839 109.38 91.1484 109.266C91.513 109.151 91.8672 109.083 92.2109 109.062C92.4922 109.135 92.7057 109.229 92.8516 109.344C92.9974 109.448 93.0964 109.562 93.1484 109.688C93.2109 109.812 93.2266 109.932 93.1953 110.047C93.1641 110.161 93.112 110.266 93.0391 110.359C92.9245 110.109 92.7734 109.943 92.5859 109.859C92.4089 109.776 92.2057 109.75 91.9766 109.781C91.7578 109.812 91.5339 109.891 91.3047 110.016C91.0755 110.141 90.8568 110.281 90.6484 110.438C90.4401 110.594 90.2578 110.76 90.1016 110.938C89.9453 111.104 89.8307 111.25 89.7578 111.375C89.7578 111.688 89.7891 111.995 89.8516 112.297C89.9245 112.589 89.9974 112.885 90.0703 113.188C90.1536 113.479 90.2266 113.776 90.2891 114.078C90.362 114.37 90.3984 114.672 90.3984 114.984C90.3984 115.734 90.2786 116.422 90.0391 117.047C89.8099 117.661 89.4714 118.193 89.0234 118.641C88.5859 119.078 88.0495 119.417 87.4141 119.656C86.7891 119.896 86.0859 120.016 85.3047 120.016C84.8151 120.016 84.3776 119.917 83.9922 119.719C83.6172 119.521 83.2995 119.26 83.0391 118.938C82.7891 118.604 82.5964 118.229 82.4609 117.812C82.3255 117.396 82.2578 116.974 82.2578 116.547ZM91.4766 118.484C91.4766 118.182 91.5339 117.88 91.6484 117.578C91.763 117.276 91.8984 116.979 92.0547 116.688C92.2109 116.385 92.3672 116.089 92.5234 115.797C92.6901 115.505 92.8151 115.219 92.8984 114.938C92.7005 115.052 92.5286 115.12 92.3828 115.141C92.2474 115.151 92.0807 115.156 91.8828 115.156C91.862 115.156 91.7943 115.156 91.6797 115.156C91.5755 115.146 91.5078 115.141 91.4766 115.141C91.5391 114.911 91.6536 114.708 91.8203 114.531C91.987 114.344 92.1745 114.188 92.3828 114.062C92.6016 113.927 92.8255 113.818 93.0547 113.734C93.2943 113.641 93.5078 113.568 93.6953 113.516C94.0078 113.026 94.263 112.536 94.4609 112.047C94.6589 111.547 94.8568 111.062 95.0547 110.594C95.263 110.115 95.5026 109.661 95.7734 109.234C96.0547 108.797 96.4297 108.396 96.8984 108.031L96.9766 108.625L95.0234 113.203C95.138 113.172 95.2786 113.141 95.4453 113.109C95.612 113.078 95.7786 113.047 95.9453 113.016C96.1224 112.984 96.2891 112.958 96.4453 112.938C96.612 112.906 96.7526 112.875 96.8672 112.844C96.8776 112.844 96.9089 112.844 96.9609 112.844C97.013 112.833 97.0547 112.828 97.0859 112.828C97.2318 112.828 97.3516 112.854 97.4453 112.906C97.5391 112.958 97.6172 113.073 97.6797 113.25C96.9714 113.458 96.3307 113.677 95.7578 113.906C95.1849 114.135 94.6849 114.438 94.2578 114.812C93.8411 115.177 93.4974 115.646 93.2266 116.219C92.9661 116.781 92.7839 117.505 92.6797 118.391C92.6797 118.578 92.6901 118.75 92.7109 118.906C92.7318 119.062 92.862 119.156 93.1016 119.188C93.3411 119.188 93.5651 119.141 93.7734 119.047C93.9818 118.953 94.1849 118.854 94.3828 118.75C94.5807 118.635 94.7786 118.531 94.9766 118.438C95.1849 118.344 95.4089 118.297 95.6484 118.297C95.6484 118.547 95.5391 118.776 95.3203 118.984C95.1016 119.193 94.8359 119.375 94.5234 119.531C94.2214 119.688 93.9089 119.807 93.5859 119.891C93.263 119.974 92.9974 120.016 92.7891 120.016C92.5807 120.016 92.3932 119.974 92.2266 119.891C92.0599 119.807 91.9193 119.698 91.8047 119.562C91.7005 119.417 91.6172 119.25 91.5547 119.062C91.5026 118.875 91.4766 118.682 91.4766 118.484ZM94.6641 124.719C94.9974 124.177 95.3828 123.693 95.8203 123.266C96.2578 122.849 96.7057 122.453 97.1641 122.078C97.6328 121.703 98.0964 121.339 98.5547 120.984C99.013 120.63 99.4349 120.25 99.8203 119.844C100.216 119.438 100.555 118.99 100.836 118.5C101.117 118 101.31 117.422 101.414 116.766C101.414 116.745 101.409 116.714 101.398 116.672C101.398 116.62 101.398 116.583 101.398 116.562C101.159 116.844 100.867 117.161 100.523 117.516C100.19 117.87 99.8255 118.203 99.4297 118.516C99.0443 118.828 98.638 119.089 98.2109 119.297C97.7839 119.505 97.3672 119.609 96.9609 119.609C96.8568 119.609 96.7214 119.604 96.5547 119.594C96.3984 119.573 96.2422 119.536 96.0859 119.484C95.9297 119.432 95.7943 119.359 95.6797 119.266C95.5651 119.172 95.5078 119.047 95.5078 118.891C95.5078 118.755 95.5443 118.547 95.6172 118.266C95.6901 117.984 95.7891 117.672 95.9141 117.328C96.0391 116.984 96.1797 116.635 96.3359 116.281C96.4922 115.927 96.6589 115.604 96.8359 115.312C97.013 115.021 97.1849 114.781 97.3516 114.594C97.5286 114.406 97.6901 114.312 97.8359 114.312C97.9818 114.312 98.1068 114.344 98.2109 114.406C98.3151 114.469 98.3672 114.573 98.3672 114.719C98.3672 114.979 98.2734 115.24 98.0859 115.5C97.8984 115.76 97.6953 116.042 97.4766 116.344C97.2578 116.635 97.0547 116.953 96.8672 117.297C96.6797 117.641 96.5859 118.031 96.5859 118.469C97.2734 118.469 97.8932 118.328 98.4453 118.047C98.9974 117.755 99.4974 117.396 99.9453 116.969C100.393 116.542 100.789 116.078 101.133 115.578C101.477 115.078 101.779 114.615 102.039 114.188C102.31 113.76 102.539 113.406 102.727 113.125C102.924 112.833 103.091 112.688 103.227 112.688C103.424 112.688 103.539 112.75 103.57 112.875C103.612 112.99 103.633 113.135 103.633 113.312C103.539 113.635 103.409 114.016 103.242 114.453C103.076 114.88 102.904 115.333 102.727 115.812C102.56 116.281 102.404 116.75 102.258 117.219C102.122 117.688 102.034 118.115 101.992 118.5C101.992 118.51 101.992 118.526 101.992 118.547C102.003 118.568 102.008 118.583 102.008 118.594C102.195 118.531 102.372 118.422 102.539 118.266C102.706 118.109 102.867 117.953 103.023 117.797C103.19 117.63 103.357 117.484 103.523 117.359C103.69 117.224 103.862 117.156 104.039 117.156C104.049 117.156 104.086 117.229 104.148 117.375C104.221 117.521 104.221 117.698 104.148 117.906C104.055 117.979 103.883 118.104 103.633 118.281C103.393 118.458 103.138 118.646 102.867 118.844C102.596 119.031 102.341 119.219 102.102 119.406C101.862 119.583 101.695 119.719 101.602 119.812C101.456 119.958 101.305 120.167 101.148 120.438C100.992 120.708 100.836 121.01 100.68 121.344C100.523 121.688 100.367 122.047 100.211 122.422C100.065 122.797 99.9193 123.161 99.7734 123.516C99.6276 123.88 99.4818 124.214 99.3359 124.516C99.2005 124.828 99.0755 125.083 98.9609 125.281C98.9089 125.365 98.7995 125.526 98.6328 125.766C98.4766 126.016 98.2995 126.281 98.1016 126.562C97.9141 126.844 97.7266 127.109 97.5391 127.359C97.362 127.62 97.2266 127.802 97.1328 127.906C97.0911 127.958 96.9766 128.078 96.7891 128.266C96.6016 128.464 96.388 128.677 96.1484 128.906C95.9193 129.146 95.6901 129.38 95.4609 129.609C95.2214 129.839 95.0391 130.01 94.9141 130.125C94.7891 130.198 94.6224 130.286 94.4141 130.391C94.2057 130.505 93.9922 130.599 93.7734 130.672C93.5443 130.745 93.3255 130.792 93.1172 130.812C92.8984 130.833 92.7214 130.786 92.5859 130.672C92.4505 130.568 92.3724 130.385 92.3516 130.125C92.3203 129.875 92.3776 129.516 92.5234 129.047C92.6589 128.589 92.8984 128.005 93.2422 127.297C93.5859 126.589 94.0599 125.729 94.6641 124.719ZM99.5703 121.359C99.5495 121.359 99.513 121.365 99.4609 121.375C99.4193 121.396 99.388 121.411 99.3672 121.422C99.3464 121.443 99.2995 121.479 99.2266 121.531C99.1536 121.583 99.0703 121.641 98.9766 121.703C98.8932 121.766 98.8099 121.828 98.7266 121.891C98.6536 121.953 98.6016 122 98.5703 122.031C98.2786 122.24 97.9453 122.531 97.5703 122.906C97.1953 123.292 96.8047 123.714 96.3984 124.172C96.0026 124.641 95.612 125.13 95.2266 125.641C94.8411 126.161 94.4974 126.656 94.1953 127.125C93.8828 127.604 93.6328 128.042 93.4453 128.438C93.2578 128.833 93.1589 129.151 93.1484 129.391C93.138 129.63 93.237 129.771 93.4453 129.812C93.6536 129.854 94.0078 129.755 94.5078 129.516C94.612 129.422 94.763 129.281 94.9609 129.094C95.1484 128.917 95.3359 128.729 95.5234 128.531C95.7214 128.344 95.8984 128.167 96.0547 128C96.2109 127.844 96.3047 127.745 96.3359 127.703C96.388 127.63 96.4714 127.516 96.5859 127.359C96.7005 127.203 96.8255 127.026 96.9609 126.828C97.0964 126.63 97.237 126.422 97.3828 126.203C97.5286 125.984 97.6641 125.771 97.7891 125.562C97.9245 125.365 98.0391 125.188 98.1328 125.031C98.237 124.875 98.3099 124.755 98.3516 124.672C98.4453 124.505 98.5599 124.266 98.6953 123.953C98.8411 123.651 98.9766 123.333 99.1016 123C99.2266 122.677 99.3359 122.365 99.4297 122.062C99.5234 121.76 99.5703 121.526 99.5703 121.359ZM103.945 118.578C103.945 118.505 103.951 118.396 103.961 118.25C103.982 118.094 104.003 117.943 104.023 117.797C104.044 117.651 104.065 117.521 104.086 117.406C104.107 117.281 104.128 117.203 104.148 117.172L106.992 111.484C107.034 111.401 107.112 111.286 107.227 111.141C107.352 110.984 107.482 110.828 107.617 110.672C107.763 110.505 107.904 110.354 108.039 110.219C108.185 110.073 108.305 109.958 108.398 109.875C108.471 109.896 108.523 109.932 108.555 109.984C108.586 110.036 108.607 110.099 108.617 110.172C108.628 110.234 108.628 110.297 108.617 110.359C108.617 110.422 108.617 110.474 108.617 110.516C108.617 110.568 108.617 110.641 108.617 110.734C108.617 110.828 108.612 110.875 108.602 110.875C108.497 111.156 108.336 111.49 108.117 111.875C107.898 112.26 107.654 112.672 107.383 113.109C107.112 113.547 106.831 114.005 106.539 114.484C106.258 114.953 105.997 115.422 105.758 115.891C105.529 116.349 105.336 116.792 105.18 117.219C105.034 117.646 104.961 118.036 104.961 118.391C104.961 118.578 105.013 118.729 105.117 118.844C105.232 118.948 105.352 119.042 105.477 119.125C105.602 119.208 105.716 119.292 105.82 119.375C105.935 119.458 105.992 119.573 105.992 119.719C105.992 119.812 105.951 119.885 105.867 119.938C105.784 119.979 105.685 120 105.57 120C105.133 120 104.753 119.88 104.43 119.641C104.107 119.391 103.945 119.036 103.945 118.578ZM124.93 120.016C124.544 119.995 124.174 119.938 123.82 119.844C123.477 119.74 123.133 119.62 122.789 119.484C122.445 119.349 122.102 119.214 121.758 119.078C121.414 118.932 121.055 118.812 120.68 118.719C120.315 118.615 119.924 118.547 119.508 118.516C119.102 118.474 118.659 118.495 118.18 118.578C118.044 118.609 117.898 118.682 117.742 118.797C117.596 118.911 117.456 119.036 117.32 119.172C117.185 119.307 117.065 119.438 116.961 119.562C116.857 119.677 116.784 119.755 116.742 119.797C116.721 119.797 116.685 119.802 116.633 119.812C116.591 119.812 116.56 119.812 116.539 119.812C116.258 119.812 116.117 119.672 116.117 119.391C116.117 119.37 116.117 119.339 116.117 119.297C116.128 119.245 116.133 119.208 116.133 119.188C116.799 118.531 117.466 117.875 118.133 117.219C118.799 116.552 119.424 115.865 120.008 115.156C120.602 114.448 121.128 113.703 121.586 112.922C122.055 112.13 122.419 111.281 122.68 110.375C122.263 110.406 121.815 110.448 121.336 110.5C120.867 110.552 120.398 110.635 119.93 110.75C119.461 110.854 119.013 111 118.586 111.188C118.159 111.365 117.784 111.604 117.461 111.906C117.305 111.906 117.211 111.849 117.18 111.734C117.148 111.609 117.133 111.49 117.133 111.375C117.133 111.281 117.133 111.214 117.133 111.172C117.143 111.12 117.159 111.083 117.18 111.062C117.211 111.031 117.253 111.005 117.305 110.984C117.367 110.964 117.456 110.927 117.57 110.875C117.966 110.719 118.383 110.547 118.82 110.359C119.258 110.172 119.701 110 120.148 109.844C120.607 109.677 121.065 109.536 121.523 109.422C121.992 109.307 122.461 109.25 122.93 109.25C122.961 109.25 123.008 109.25 123.07 109.25C123.143 109.25 123.216 109.255 123.289 109.266C123.362 109.266 123.43 109.266 123.492 109.266C123.565 109.266 123.612 109.266 123.633 109.266C123.852 109.349 123.977 109.458 124.008 109.594C124.039 109.729 124.055 109.88 124.055 110.047C124.055 110.359 124.023 110.635 123.961 110.875C123.898 111.104 123.789 111.38 123.633 111.703C123.31 112.161 122.956 112.656 122.57 113.188C122.185 113.708 121.779 114.24 121.352 114.781C120.935 115.323 120.508 115.854 120.07 116.375C119.633 116.885 119.201 117.354 118.773 117.781C118.93 117.771 119.154 117.76 119.445 117.75C119.737 117.729 120.049 117.724 120.383 117.734C120.727 117.734 121.06 117.755 121.383 117.797C121.716 117.828 121.997 117.885 122.227 117.969C122.487 118.073 122.721 118.188 122.93 118.312C123.148 118.427 123.357 118.536 123.555 118.641C123.763 118.734 123.977 118.818 124.195 118.891C124.414 118.953 124.659 118.984 124.93 118.984C125.398 118.984 125.857 118.927 126.305 118.812C126.753 118.698 127.195 118.578 127.633 118.453C128.07 118.318 128.492 118.193 128.898 118.078C129.315 117.964 129.716 117.906 130.102 117.906V118.172C130.102 118.182 130.044 118.224 129.93 118.297C129.826 118.359 129.701 118.438 129.555 118.531C129.409 118.615 129.253 118.698 129.086 118.781C128.93 118.865 128.799 118.932 128.695 118.984C128.049 119.286 127.43 119.536 126.836 119.734C126.253 119.922 125.617 120.016 124.93 120.016ZM122.008 107.359C122.018 107.224 122.076 107.115 122.18 107.031C122.294 106.938 122.419 106.891 122.555 106.891C122.701 106.88 122.841 106.932 122.977 107.047C123.112 107.161 123.216 107.354 123.289 107.625C123.289 107.854 123.227 108.036 123.102 108.172C122.977 108.307 122.799 108.375 122.57 108.375C122.539 108.375 122.492 108.385 122.43 108.406C122.367 108.417 122.305 108.401 122.242 108.359C122.18 108.307 122.122 108.208 122.07 108.062C122.029 107.917 122.008 107.682 122.008 107.359ZM128.633 124.719C128.966 124.177 129.352 123.693 129.789 123.266C130.227 122.849 130.674 122.453 131.133 122.078C131.602 121.703 132.065 121.339 132.523 120.984C132.982 120.63 133.404 120.25 133.789 119.844C134.185 119.438 134.523 118.99 134.805 118.5C135.086 118 135.279 117.422 135.383 116.766C135.383 116.745 135.378 116.714 135.367 116.672C135.367 116.62 135.367 116.583 135.367 116.562C135.128 116.844 134.836 117.161 134.492 117.516C134.159 117.87 133.794 118.203 133.398 118.516C133.013 118.828 132.607 119.089 132.18 119.297C131.753 119.505 131.336 119.609 130.93 119.609C130.826 119.609 130.69 119.604 130.523 119.594C130.367 119.573 130.211 119.536 130.055 119.484C129.898 119.432 129.763 119.359 129.648 119.266C129.534 119.172 129.477 119.047 129.477 118.891C129.477 118.755 129.513 118.547 129.586 118.266C129.659 117.984 129.758 117.672 129.883 117.328C130.008 116.984 130.148 116.635 130.305 116.281C130.461 115.927 130.628 115.604 130.805 115.312C130.982 115.021 131.154 114.781 131.32 114.594C131.497 114.406 131.659 114.312 131.805 114.312C131.951 114.312 132.076 114.344 132.18 114.406C132.284 114.469 132.336 114.573 132.336 114.719C132.336 114.979 132.242 115.24 132.055 115.5C131.867 115.76 131.664 116.042 131.445 116.344C131.227 116.635 131.023 116.953 130.836 117.297C130.648 117.641 130.555 118.031 130.555 118.469C131.242 118.469 131.862 118.328 132.414 118.047C132.966 117.755 133.466 117.396 133.914 116.969C134.362 116.542 134.758 116.078 135.102 115.578C135.445 115.078 135.747 114.615 136.008 114.188C136.279 113.76 136.508 113.406 136.695 113.125C136.893 112.833 137.06 112.688 137.195 112.688C137.393 112.688 137.508 112.75 137.539 112.875C137.581 112.99 137.602 113.135 137.602 113.312C137.508 113.635 137.378 114.016 137.211 114.453C137.044 114.88 136.872 115.333 136.695 115.812C136.529 116.281 136.372 116.75 136.227 117.219C136.091 117.688 136.003 118.115 135.961 118.5C135.961 118.51 135.961 118.526 135.961 118.547C135.971 118.568 135.977 118.583 135.977 118.594C136.164 118.531 136.341 118.422 136.508 118.266C136.674 118.109 136.836 117.953 136.992 117.797C137.159 117.63 137.326 117.484 137.492 117.359C137.659 117.224 137.831 117.156 138.008 117.156C138.018 117.156 138.055 117.229 138.117 117.375C138.19 117.521 138.19 117.698 138.117 117.906C138.023 117.979 137.852 118.104 137.602 118.281C137.362 118.458 137.107 118.646 136.836 118.844C136.565 119.031 136.31 119.219 136.07 119.406C135.831 119.583 135.664 119.719 135.57 119.812C135.424 119.958 135.273 120.167 135.117 120.438C134.961 120.708 134.805 121.01 134.648 121.344C134.492 121.688 134.336 122.047 134.18 122.422C134.034 122.797 133.888 123.161 133.742 123.516C133.596 123.88 133.451 124.214 133.305 124.516C133.169 124.828 133.044 125.083 132.93 125.281C132.878 125.365 132.768 125.526 132.602 125.766C132.445 126.016 132.268 126.281 132.07 126.562C131.883 126.844 131.695 127.109 131.508 127.359C131.331 127.62 131.195 127.802 131.102 127.906C131.06 127.958 130.945 128.078 130.758 128.266C130.57 128.464 130.357 128.677 130.117 128.906C129.888 129.146 129.659 129.38 129.43 129.609C129.19 129.839 129.008 130.01 128.883 130.125C128.758 130.198 128.591 130.286 128.383 130.391C128.174 130.505 127.961 130.599 127.742 130.672C127.513 130.745 127.294 130.792 127.086 130.812C126.867 130.833 126.69 130.786 126.555 130.672C126.419 130.568 126.341 130.385 126.32 130.125C126.289 129.875 126.346 129.516 126.492 129.047C126.628 128.589 126.867 128.005 127.211 127.297C127.555 126.589 128.029 125.729 128.633 124.719ZM133.539 121.359C133.518 121.359 133.482 121.365 133.43 121.375C133.388 121.396 133.357 121.411 133.336 121.422C133.315 121.443 133.268 121.479 133.195 121.531C133.122 121.583 133.039 121.641 132.945 121.703C132.862 121.766 132.779 121.828 132.695 121.891C132.622 121.953 132.57 122 132.539 122.031C132.247 122.24 131.914 122.531 131.539 122.906C131.164 123.292 130.773 123.714 130.367 124.172C129.971 124.641 129.581 125.13 129.195 125.641C128.81 126.161 128.466 126.656 128.164 127.125C127.852 127.604 127.602 128.042 127.414 128.438C127.227 128.833 127.128 129.151 127.117 129.391C127.107 129.63 127.206 129.771 127.414 129.812C127.622 129.854 127.977 129.755 128.477 129.516C128.581 129.422 128.732 129.281 128.93 129.094C129.117 128.917 129.305 128.729 129.492 128.531C129.69 128.344 129.867 128.167 130.023 128C130.18 127.844 130.273 127.745 130.305 127.703C130.357 127.63 130.44 127.516 130.555 127.359C130.669 127.203 130.794 127.026 130.93 126.828C131.065 126.63 131.206 126.422 131.352 126.203C131.497 125.984 131.633 125.771 131.758 125.562C131.893 125.365 132.008 125.188 132.102 125.031C132.206 124.875 132.279 124.755 132.32 124.672C132.414 124.505 132.529 124.266 132.664 123.953C132.81 123.651 132.945 123.333 133.07 123C133.195 122.677 133.305 122.365 133.398 122.062C133.492 121.76 133.539 121.526 133.539 121.359ZM141.773 114.344C141.534 114.375 141.258 114.526 140.945 114.797C140.633 115.057 140.331 115.38 140.039 115.766C139.758 116.141 139.518 116.552 139.32 117C139.122 117.438 139.023 117.844 139.023 118.219C139.023 118.521 139.102 118.734 139.258 118.859C139.414 118.974 139.638 119.031 139.93 119.031C140.242 119.031 140.544 118.995 140.836 118.922C141.138 118.839 141.435 118.755 141.727 118.672C142.029 118.578 142.326 118.495 142.617 118.422C142.919 118.339 143.227 118.297 143.539 118.297C143.539 118.443 143.518 118.568 143.477 118.672C143.435 118.766 143.372 118.87 143.289 118.984C142.747 119.245 142.19 119.484 141.617 119.703C141.044 119.911 140.445 120.016 139.82 120.016C139.633 120.016 139.435 119.984 139.227 119.922C139.018 119.849 138.826 119.75 138.648 119.625C138.471 119.5 138.32 119.349 138.195 119.172C138.081 118.995 138.023 118.797 138.023 118.578C138.023 118.109 138.091 117.656 138.227 117.219C138.362 116.771 138.549 116.349 138.789 115.953C139.029 115.557 139.315 115.193 139.648 114.859C139.992 114.526 140.362 114.234 140.758 113.984V113.969C140.914 113.875 141.091 113.786 141.289 113.703C141.497 113.609 141.69 113.557 141.867 113.547C142.044 113.526 142.19 113.568 142.305 113.672C142.43 113.766 142.492 113.948 142.492 114.219C142.492 114.344 142.482 114.51 142.461 114.719C142.44 114.917 142.383 115.057 142.289 115.141C142.206 115.193 142.096 115.24 141.961 115.281C141.898 115.302 141.836 115.318 141.773 115.328V114.344ZM143.336 118.984C143.336 118.839 143.352 118.714 143.383 118.609C143.414 118.495 143.471 118.349 143.555 118.172C143.628 118.068 143.758 117.87 143.945 117.578C144.143 117.286 144.346 116.979 144.555 116.656C144.773 116.333 144.977 116.031 145.164 115.75C145.362 115.458 145.497 115.255 145.57 115.141C145.664 115.005 145.737 114.932 145.789 114.922C145.841 114.911 145.94 114.906 146.086 114.906C146.18 114.906 146.279 114.911 146.383 114.922C146.497 114.932 146.57 115.005 146.602 115.141C146.456 115.495 146.258 115.833 146.008 116.156C145.768 116.469 145.529 116.781 145.289 117.094C145.06 117.406 144.857 117.729 144.68 118.062C144.503 118.385 144.414 118.734 144.414 119.109C144.456 119.109 144.518 119.115 144.602 119.125C144.695 119.135 144.794 119.146 144.898 119.156C145.003 119.167 145.096 119.177 145.18 119.188C145.273 119.198 145.341 119.198 145.383 119.188C145.445 119.177 145.549 119.156 145.695 119.125C145.852 119.083 146.013 119.042 146.18 119C146.357 118.958 146.523 118.917 146.68 118.875C146.836 118.833 146.945 118.802 147.008 118.781C147.008 118.802 147.008 118.839 147.008 118.891C147.018 118.932 147.023 118.964 147.023 118.984C147.023 119.193 146.924 119.365 146.727 119.5C146.539 119.635 146.315 119.745 146.055 119.828C145.805 119.901 145.544 119.953 145.273 119.984C145.013 120.005 144.81 120.016 144.664 120.016C144.508 120.016 144.346 120 144.18 119.969C144.023 119.927 143.883 119.865 143.758 119.781C143.633 119.698 143.529 119.594 143.445 119.469C143.372 119.333 143.336 119.172 143.336 118.984ZM147.883 109.828C148.018 109.828 148.143 109.833 148.258 109.844C148.372 109.854 148.471 109.88 148.555 109.922C148.638 109.964 148.706 110.026 148.758 110.109C148.81 110.193 148.836 110.307 148.836 110.453C148.836 110.516 148.836 110.583 148.836 110.656C148.836 110.729 148.826 110.802 148.805 110.875C148.794 110.938 148.768 110.995 148.727 111.047C148.685 111.089 148.617 111.109 148.523 111.109C148.378 111.109 148.258 111.057 148.164 110.953C148.081 110.849 148.018 110.729 147.977 110.594C147.935 110.448 147.909 110.302 147.898 110.156C147.888 110.01 147.883 109.901 147.883 109.828ZM147.242 118.984C147.336 118.391 147.513 117.844 147.773 117.344C148.034 116.844 148.331 116.411 148.664 116.047C149.008 115.672 149.378 115.365 149.773 115.125C150.169 114.885 150.555 114.734 150.93 114.672C151.305 114.599 151.648 114.615 151.961 114.719C152.284 114.823 152.544 115.031 152.742 115.344C152.742 115.583 152.685 115.812 152.57 116.031C152.466 116.25 152.346 116.469 152.211 116.688C152.086 116.906 151.966 117.13 151.852 117.359C151.747 117.589 151.695 117.833 151.695 118.094C151.695 118.365 151.753 118.583 151.867 118.75C151.992 118.906 152.206 118.984 152.508 118.984C152.758 118.984 152.997 118.948 153.227 118.875C153.466 118.802 153.706 118.766 153.945 118.766C153.987 118.766 154.055 118.771 154.148 118.781C154.253 118.781 154.32 118.781 154.352 118.781C154.227 118.958 154.065 119.109 153.867 119.234C153.669 119.359 153.461 119.469 153.242 119.562C153.023 119.646 152.794 119.708 152.555 119.75C152.326 119.792 152.112 119.812 151.914 119.812C151.727 119.812 151.56 119.771 151.414 119.688C151.268 119.604 151.143 119.495 151.039 119.359C150.935 119.224 150.852 119.073 150.789 118.906C150.737 118.729 150.711 118.557 150.711 118.391C150.555 118.568 150.383 118.755 150.195 118.953C150.018 119.141 149.826 119.312 149.617 119.469C149.419 119.625 149.201 119.755 148.961 119.859C148.732 119.964 148.492 120.016 148.242 120.016C147.971 120.016 147.737 119.917 147.539 119.719C147.341 119.51 147.242 119.266 147.242 118.984ZM148.273 118.5C148.273 118.583 148.273 118.677 148.273 118.781C148.284 118.885 148.352 118.953 148.477 118.984C148.737 118.922 149.034 118.786 149.367 118.578C149.701 118.359 150.013 118.109 150.305 117.828C150.596 117.536 150.841 117.229 151.039 116.906C151.237 116.573 151.336 116.255 151.336 115.953C151.336 115.932 151.331 115.901 151.32 115.859C151.32 115.807 151.32 115.771 151.32 115.75C150.966 115.75 150.607 115.823 150.242 115.969C149.878 116.115 149.549 116.318 149.258 116.578C148.966 116.828 148.727 117.12 148.539 117.453C148.362 117.786 148.273 118.135 148.273 118.5Z" fill="#FBB13C"/>
<path d="M16 131C56.5253 124.501 96.06 127.96 137.115 127.617C145.724 127.545 150.39 127.607 159 127.607" stroke="#FBB13C" stroke-linecap="round" stroke-linejoin="round"/>
<path d="M23.7146 87.256C23.6306 88.108 23.5886 88.876 23.5886 89.56C23.5886 90.16 23.6066 90.652 23.6426 91.036H23.2286C23.1326 90.112 23.0126 89.428 22.8686 88.984C22.7246 88.528 22.4726 88.198 22.1126 87.994C21.7526 87.778 21.2006 87.67 20.4566 87.67H19.4846V97.912C19.4846 98.416 19.5326 98.782 19.6286 99.01C19.7246 99.238 19.8926 99.394 20.1326 99.478C20.3726 99.562 20.7626 99.616 21.3026 99.64V100C20.6786 99.964 19.7966 99.946 18.6566 99.946C17.4566 99.946 16.5686 99.964 15.9926 100V99.64C16.5326 99.616 16.9226 99.562 17.1626 99.478C17.4026 99.394 17.5706 99.238 17.6666 99.01C17.7626 98.782 17.8106 98.416 17.8106 97.912V87.67H16.8386C16.0946 87.67 15.5426 87.778 15.1826 87.994C14.8226 88.198 14.5706 88.528 14.4266 88.984C14.2826 89.428 14.1626 90.112 14.0666 91.036H13.6526C13.6886 90.652 13.7066 90.16 13.7066 89.56C13.7066 88.876 13.6646 88.108 13.5806 87.256C14.5766 87.292 16.2686 87.31 18.6566 87.31C21.0326 87.31 22.7186 87.292 23.7146 87.256ZM34.2103 97.696C34.2103 98.38 34.2523 99.148 34.3363 100C33.5203 99.964 32.1463 99.946 30.2143 99.946C27.9103 99.946 26.1703 99.964 24.9943 100V99.64C25.4263 99.616 25.7383 99.568 25.9303 99.496C26.1343 99.424 26.2723 99.286 26.3443 99.082C26.4163 98.878 26.4523 98.548 26.4523 98.092V89.164C26.4523 88.708 26.4163 88.378 26.3443 88.174C26.2723 87.97 26.1343 87.832 25.9303 87.76C25.7383 87.688 25.4263 87.64 24.9943 87.616V87.256C26.1703 87.292 27.9103 87.31 30.2143 87.31C31.9783 87.31 33.2323 87.292 33.9763 87.256C33.8923 88.048 33.8503 88.756 33.8503 89.38C33.8503 89.848 33.8683 90.22 33.9043 90.496H33.4903C33.4063 89.716 33.2983 89.14 33.1663 88.768C33.0343 88.384 32.8123 88.108 32.5003 87.94C32.1883 87.76 31.7143 87.67 31.0783 87.67H29.5843C29.1523 87.67 28.8343 87.706 28.6303 87.778C28.4383 87.838 28.3063 87.97 28.2343 88.174C28.1623 88.378 28.1263 88.708 28.1263 89.164V93.412H29.3143C29.7343 93.412 30.0583 93.316 30.2863 93.124C30.5143 92.92 30.6643 92.686 30.7363 92.422C30.8203 92.146 30.8863 91.804 30.9343 91.396L30.9883 91.036H31.4023C31.3663 91.54 31.3483 92.104 31.3483 92.728V93.592C31.3483 94.204 31.3843 95.056 31.4563 96.148H31.0423C31.0303 96.064 30.9943 95.776 30.9343 95.284C30.8743 94.78 30.7063 94.402 30.4303 94.15C30.1663 93.898 29.7943 93.772 29.3143 93.772H28.1263V98.092C28.1263 98.548 28.1623 98.878 28.2343 99.082C28.3063 99.286 28.4383 99.424 28.6303 99.496C28.8343 99.556 29.1523 99.586 29.5843 99.586H30.8983C31.6423 99.586 32.2063 99.49 32.5903 99.298C32.9863 99.094 33.2743 98.776 33.4543 98.344C33.6343 97.9 33.7663 97.252 33.8503 96.4H34.2643C34.2283 96.724 34.2103 97.156 34.2103 97.696ZM47.267 87.616C46.847 87.64 46.535 87.706 46.331 87.814C46.127 87.91 45.989 88.078 45.917 88.318C45.845 88.546 45.809 88.888 45.809 89.344V100.09H45.395L37.835 88.408V97.912C37.835 98.38 37.871 98.728 37.943 98.956C38.027 99.184 38.183 99.352 38.411 99.46C38.639 99.556 38.993 99.616 39.473 99.64V100C39.041 99.964 38.429 99.946 37.637 99.946C36.917 99.946 36.359 99.964 35.963 100V99.64C36.383 99.616 36.695 99.556 36.899 99.46C37.103 99.352 37.241 99.184 37.313 98.956C37.385 98.716 37.421 98.368 37.421 97.912V89.164C37.421 88.708 37.385 88.378 37.313 88.174C37.241 87.97 37.103 87.832 36.899 87.76C36.707 87.688 36.395 87.64 35.963 87.616V87.256C36.359 87.292 36.917 87.31 37.637 87.31C38.177 87.31 38.645 87.292 39.041 87.256L45.395 97.048V89.344C45.395 88.876 45.353 88.528 45.269 88.3C45.197 88.072 45.047 87.91 44.819 87.814C44.591 87.706 44.237 87.64 43.757 87.616V87.256C44.189 87.292 44.801 87.31 45.593 87.31C46.313 87.31 46.871 87.292 47.267 87.256V87.616ZM53.262 87.616C52.83 87.64 52.512 87.688 52.308 87.76C52.116 87.832 51.984 87.97 51.912 88.174C51.84 88.378 51.804 88.708 51.804 89.164V98.092C51.804 98.548 51.84 98.878 51.912 99.082C51.984 99.286 52.116 99.424 52.308 99.496C52.512 99.568 52.83 99.616 53.262 99.64V100C52.71 99.964 51.948 99.946 50.976 99.946C49.944 99.946 49.176 99.964 48.672 100V99.64C49.104 99.616 49.416 99.568 49.608 99.496C49.812 99.424 49.95 99.286 50.022 99.082C50.094 98.878 50.13 98.548 50.13 98.092V89.164C50.13 88.708 50.094 88.378 50.022 88.174C49.95 87.97 49.812 87.832 49.608 87.76C49.416 87.688 49.104 87.64 48.672 87.616V87.256C49.176 87.292 49.944 87.31 50.976 87.31C51.936 87.31 52.698 87.292 53.262 87.256V87.616ZM58.6236 87.058C59.1516 87.058 59.5656 87.118 59.8656 87.238C60.1776 87.346 60.4956 87.508 60.8196 87.724C61.0836 87.892 61.2876 87.976 61.4316 87.976C61.5396 87.976 61.6236 87.916 61.6836 87.796C61.7436 87.664 61.7916 87.46 61.8276 87.184H62.2416C62.1816 87.88 62.1516 89.104 62.1516 90.856H61.7376C61.6656 89.884 61.3836 89.068 60.8916 88.408C60.4116 87.736 59.7096 87.4 58.7856 87.4C58.1376 87.4 57.6096 87.598 57.2016 87.994C56.7936 88.378 56.5896 88.876 56.5896 89.488C56.5896 89.944 56.6916 90.34 56.8956 90.676C57.1116 91.012 57.3816 91.3 57.7056 91.54C58.0296 91.78 58.4916 92.086 59.0916 92.458L59.6136 92.782C60.3696 93.25 60.9636 93.664 61.3956 94.024C61.8396 94.372 62.1936 94.774 62.4576 95.23C62.7216 95.686 62.8536 96.22 62.8536 96.832C62.8536 97.924 62.4936 98.77 61.7736 99.37C61.0536 99.958 60.1416 100.252 59.0376 100.252C58.4616 100.252 57.9876 100.192 57.6156 100.072C57.2556 99.952 56.9076 99.79 56.5716 99.586C56.3076 99.418 56.1036 99.334 55.9596 99.334C55.8516 99.334 55.7676 99.4 55.7076 99.532C55.6476 99.652 55.5996 99.85 55.5636 100.126H55.1496C55.1976 99.466 55.2216 98.026 55.2216 95.806H55.6356C55.7196 97.018 56.0196 98.002 56.5356 98.758C57.0516 99.514 57.8436 99.892 58.9116 99.892C59.5596 99.892 60.1116 99.694 60.5676 99.298C61.0236 98.89 61.2516 98.29 61.2516 97.498C61.2516 96.826 61.0236 96.256 60.5676 95.788C60.1236 95.32 59.4156 94.792 58.4436 94.204C57.7356 93.772 57.1596 93.388 56.7156 93.052C56.2836 92.716 55.9296 92.314 55.6536 91.846C55.3776 91.366 55.2396 90.808 55.2396 90.172C55.2396 89.164 55.5636 88.396 56.2116 87.868C56.8596 87.328 57.6636 87.058 58.6236 87.058ZM80.0988 99.1C79.8228 99.508 79.5468 99.802 79.2708 99.982C78.9948 100.162 78.6288 100.252 78.1728 100.252C77.6808 100.252 77.2728 100.108 76.9488 99.82C76.6368 99.532 76.4028 99.028 76.2468 98.308L75.8508 96.508C75.7068 95.884 75.5688 95.404 75.4368 95.068C75.3168 94.732 75.1308 94.462 74.8788 94.258C74.6268 94.054 74.2728 93.952 73.8168 93.952H72.1068V98.092C72.1068 98.548 72.1428 98.878 72.2148 99.082C72.2868 99.286 72.4188 99.424 72.6108 99.496C72.8148 99.568 73.1328 99.616 73.5648 99.64V100C73.0128 99.964 72.2508 99.946 71.2788 99.946C70.2468 99.946 69.4788 99.964 68.9748 100V99.64C69.4068 99.616 69.7188 99.568 69.9108 99.496C70.1148 99.424 70.2528 99.286 70.3248 99.082C70.3968 98.878 70.4328 98.548 70.4328 98.092V89.164C70.4328 88.708 70.3968 88.378 70.3248 88.174C70.2528 87.97 70.1148 87.832 69.9108 87.76C69.7188 87.688 69.4068 87.64 68.9748 87.616V87.256C69.4788 87.292 70.2108 87.31 71.1708 87.31L73.1148 87.292C73.3428 87.28 73.6008 87.274 73.8888 87.274C75.2808 87.274 76.3488 87.568 77.0928 88.156C77.8488 88.732 78.2268 89.482 78.2268 90.406C78.2268 90.874 78.1128 91.348 77.8848 91.828C77.6688 92.296 77.2968 92.722 76.7688 93.106C76.2528 93.478 75.5748 93.73 74.7348 93.862L74.9508 93.898C75.7428 94.03 76.3188 94.27 76.6788 94.618C77.0388 94.966 77.3027 95.518 77.4707 96.274L77.9208 98.11C78.0408 98.662 78.1668 99.046 78.2988 99.262C78.4308 99.478 78.6108 99.586 78.8388 99.586C79.0428 99.586 79.2108 99.532 79.3428 99.424C79.4868 99.316 79.6488 99.142 79.8288 98.902L80.0988 99.1ZM73.4388 87.616C73.0668 87.616 72.7848 87.658 72.5928 87.742C72.4128 87.826 72.2868 87.976 72.2148 88.192C72.1428 88.408 72.1068 88.732 72.1068 89.164V93.592H73.3128C74.5008 93.592 75.3168 93.328 75.7608 92.8C76.2048 92.272 76.4268 91.54 76.4268 90.604C76.4268 89.62 76.1928 88.876 75.7248 88.372C75.2568 87.868 74.4948 87.616 73.4388 87.616ZM88.2985 87.31C88.8385 87.31 89.2885 87.292 89.6485 87.256V87.616C89.4085 87.676 89.1745 87.832 88.9465 88.084C88.7185 88.324 88.4725 88.702 88.2085 89.218L85.3825 94.816V98.092C85.3825 98.548 85.4185 98.878 85.4905 99.082C85.5625 99.286 85.6945 99.424 85.8865 99.496C86.0905 99.568 86.4085 99.616 86.8405 99.64V100C86.2885 99.964 85.5265 99.946 84.5545 99.946C83.5225 99.946 82.7545 99.964 82.2505 100V99.64C82.6825 99.616 82.9945 99.568 83.1865 99.496C83.3905 99.424 83.5285 99.286 83.6005 99.082C83.6725 98.878 83.7085 98.548 83.7085 98.092V95.392L80.0545 88.642C79.8385 88.246 79.6465 87.982 79.4785 87.85C79.3225 87.706 79.1665 87.634 79.0105 87.634V87.256C79.4785 87.292 80.0065 87.31 80.5945 87.31C81.7585 87.31 82.5985 87.292 83.1145 87.256V87.634C82.2745 87.634 81.8545 87.862 81.8545 88.318C81.8545 88.498 81.9145 88.708 82.0345 88.948L85.0225 94.69L87.3265 90.118C87.6505 89.482 87.8125 88.966 87.8125 88.57C87.8125 88.234 87.6805 87.994 87.4165 87.85C87.1525 87.706 86.7565 87.628 86.2285 87.616V87.256C86.9125 87.292 87.6025 87.31 88.2985 87.31ZM100.355 87.256C100.271 88.108 100.229 88.876 100.229 89.56C100.229 90.16 100.247 90.652 100.283 91.036H99.8692C99.7732 90.112 99.6532 89.428 99.5092 88.984C99.3652 88.528 99.1132 88.198 98.7532 87.994C98.3932 87.778 97.8412 87.67 97.0972 87.67H96.1252V97.912C96.1252 98.416 96.1732 98.782 96.2692 99.01C96.3652 99.238 96.5332 99.394 96.7732 99.478C97.0132 99.562 97.4032 99.616 97.9432 99.64V100C97.3192 99.964 96.4372 99.946 95.2972 99.946C94.0972 99.946 93.2092 99.964 92.6332 100V99.64C93.1732 99.616 93.5632 99.562 93.8032 99.478C94.0432 99.394 94.2112 99.238 94.3072 99.01C94.4032 98.782 94.4512 98.416 94.4512 97.912V87.67H93.4792C92.7352 87.67 92.1832 87.778 91.8232 87.994C91.4632 88.198 91.2112 88.528 91.0672 88.984C90.9232 89.428 90.8032 90.112 90.7072 91.036H90.2932C90.3292 90.652 90.3472 90.16 90.3472 89.56C90.3472 88.876 90.3052 88.108 90.2212 87.256C91.2172 87.292 92.9092 87.31 95.2972 87.31C97.6732 87.31 99.3592 87.292 100.355 87.256ZM115.801 87.616C115.369 87.64 115.051 87.688 114.847 87.76C114.655 87.832 114.523 87.97 114.451 88.174C114.379 88.378 114.343 88.708 114.343 89.164V98.092C114.343 98.548 114.379 98.878 114.451 99.082C114.523 99.286 114.655 99.424 114.847 99.496C115.051 99.568 115.369 99.616 115.801 99.64V100C115.249 99.964 114.487 99.946 113.515 99.946C112.483 99.946 111.715 99.964 111.211 100V99.64C111.643 99.616 111.955 99.568 112.147 99.496C112.351 99.424 112.489 99.286 112.561 99.082C112.633 98.878 112.669 98.548 112.669 98.092V88.444L108.331 100.09H108.043L103.507 88.408V97.912C103.507 98.38 103.543 98.728 103.615 98.956C103.699 99.184 103.855 99.352 104.083 99.46C104.311 99.556 104.665 99.616 105.145 99.64V100C104.713 99.964 104.101 99.946 103.309 99.946C102.589 99.946 102.031 99.964 101.635 100V99.64C102.055 99.616 102.367 99.556 102.571 99.46C102.775 99.352 102.913 99.184 102.985 98.956C103.057 98.716 103.093 98.368 103.093 97.912V89.164C103.093 88.708 103.057 88.378 102.985 88.174C102.913 87.97 102.775 87.832 102.571 87.76C102.379 87.688 102.067 87.64 101.635 87.616V87.256C102.031 87.292 102.589 87.31 103.309 87.31C103.933 87.31 104.443 87.292 104.839 87.256L108.799 97.678L112.669 87.31H113.515C114.487 87.31 115.249 87.292 115.801 87.256V87.616ZM121.905 87.616C121.473 87.64 121.155 87.688 120.951 87.76C120.759 87.832 120.627 87.97 120.555 88.174C120.483 88.378 120.447 88.708 120.447 89.164V98.092C120.447 98.548 120.483 98.878 120.555 99.082C120.627 99.286 120.759 99.424 120.951 99.496C121.155 99.568 121.473 99.616 121.905 99.64V100C121.353 99.964 120.591 99.946 119.619 99.946C118.587 99.946 117.819 99.964 117.315 100V99.64C117.747 99.616 118.059 99.568 118.251 99.496C118.455 99.424 118.593 99.286 118.665 99.082C118.737 98.878 118.773 98.548 118.773 98.092V89.164C118.773 88.708 118.737 88.378 118.665 88.174C118.593 87.97 118.455 87.832 118.251 87.76C118.059 87.688 117.747 87.64 117.315 87.616V87.256C117.819 87.292 118.587 87.31 119.619 87.31C120.579 87.31 121.341 87.292 121.905 87.256V87.616ZM129.196 87.004C129.916 87.004 130.528 87.106 131.032 87.31C131.536 87.514 132.028 87.802 132.508 88.174C132.64 88.282 132.754 88.336 132.85 88.336C133.09 88.336 133.246 87.976 133.318 87.256H133.732C133.684 88.036 133.66 89.416 133.66 91.396H133.246C133.114 90.616 132.994 90.058 132.886 89.722C132.778 89.374 132.598 89.044 132.346 88.732C131.986 88.264 131.524 87.916 130.96 87.688C130.408 87.448 129.808 87.328 129.16 87.328C128.38 87.328 127.696 87.586 127.108 88.102C126.532 88.618 126.082 89.356 125.758 90.316C125.434 91.264 125.272 92.38 125.272 93.664C125.272 94.972 125.446 96.094 125.794 97.03C126.142 97.966 126.622 98.68 127.234 99.172C127.858 99.652 128.56 99.892 129.34 99.892C129.94 99.892 130.522 99.778 131.086 99.55C131.65 99.322 132.094 98.98 132.418 98.524C132.658 98.188 132.832 97.828 132.94 97.444C133.048 97.06 133.15 96.472 133.246 95.68H133.66C133.66 97.744 133.684 99.184 133.732 100H133.318C133.282 99.616 133.228 99.346 133.156 99.19C133.096 99.022 133.006 98.938 132.886 98.938C132.79 98.938 132.664 98.986 132.508 99.082C131.968 99.466 131.452 99.76 130.96 99.964C130.468 100.156 129.874 100.252 129.178 100.252C128.038 100.252 127.036 99.994 126.172 99.478C125.32 98.962 124.654 98.218 124.174 97.246C123.706 96.262 123.472 95.092 123.472 93.736C123.472 92.416 123.712 91.246 124.192 90.226C124.684 89.206 125.362 88.414 126.226 87.85C127.102 87.286 128.092 87.004 129.196 87.004ZM144.81 87.616L137.628 99.586H141.156C141.9 99.586 142.464 99.484 142.848 99.28C143.244 99.064 143.532 98.722 143.712 98.254C143.892 97.786 144.024 97.108 144.108 96.22H144.522C144.486 96.592 144.468 97.084 144.468 97.696C144.468 98.38 144.51 99.148 144.594 100C143.706 99.964 142.212 99.946 140.112 99.946C138.06 99.946 136.578 99.964 135.666 100V99.64L142.902 87.67H139.392C138.648 87.67 138.078 87.778 137.682 87.994C137.298 88.198 137.016 88.534 136.836 89.002C136.656 89.47 136.524 90.148 136.44 91.036H136.026C136.062 90.652 136.08 90.16 136.08 89.56C136.08 88.876 136.038 88.108 135.954 87.256C136.842 87.292 138.336 87.31 140.436 87.31C142.476 87.31 143.934 87.292 144.81 87.256V87.616ZM157.658 87.616C157.238 87.64 156.926 87.706 156.722 87.814C156.518 87.91 156.38 88.078 156.308 88.318C156.236 88.546 156.2 88.888 156.2 89.344V100.09H155.786L148.226 88.408V97.912C148.226 98.38 148.262 98.728 148.334 98.956C148.418 99.184 148.574 99.352 148.802 99.46C149.03 99.556 149.384 99.616 149.864 99.64V100C149.432 99.964 148.82 99.946 148.028 99.946C147.308 99.946 146.75 99.964 146.354 100V99.64C146.774 99.616 147.086 99.556 147.29 99.46C147.494 99.352 147.632 99.184 147.704 98.956C147.776 98.716 147.812 98.368 147.812 97.912V89.164C147.812 88.708 147.776 88.378 147.704 88.174C147.632 87.97 147.494 87.832 147.29 87.76C147.098 87.688 146.786 87.64 146.354 87.616V87.256C146.75 87.292 147.308 87.31 148.028 87.31C148.568 87.31 149.036 87.292 149.432 87.256L155.786 97.048V89.344C155.786 88.876 155.744 88.528 155.66 88.3C155.588 88.072 155.438 87.91 155.21 87.814C154.982 87.706 154.628 87.64 154.148 87.616V87.256C154.58 87.292 155.192 87.31 155.984 87.31C156.704 87.31 157.262 87.292 157.658 87.256V87.616ZM167.541 87.31C168.081 87.31 168.531 87.292 168.891 87.256V87.616C168.651 87.676 168.417 87.832 168.189 88.084C167.961 88.324 167.715 88.702 167.451 89.218L164.625 94.816V98.092C164.625 98.548 164.661 98.878 164.733 99.082C164.805 99.286 164.937 99.424 165.129 99.496C165.333 99.568 165.651 99.616 166.083 99.64V100C165.531 99.964 164.769 99.946 163.797 99.946C162.765 99.946 161.997 99.964 161.493 100V99.64C161.925 99.616 162.237 99.568 162.429 99.496C162.633 99.424 162.771 99.286 162.843 99.082C162.915 98.878 162.951 98.548 162.951 98.092V95.392L159.297 88.642C159.081 88.246 158.889 87.982 158.721 87.85C158.565 87.706 158.409 87.634 158.253 87.634V87.256C158.721 87.292 159.249 87.31 159.837 87.31C161.001 87.31 161.841 87.292 162.357 87.256V87.634C161.517 87.634 161.097 87.862 161.097 88.318C161.097 88.498 161.157 88.708 161.277 88.948L164.265 94.69L166.569 90.118C166.893 89.482 167.055 88.966 167.055 88.57C167.055 88.234 166.923 87.994 166.659 87.85C166.395 87.706 165.999 87.628 165.471 87.616V87.256C166.155 87.292 166.845 87.31 167.541 87.31Z" fill="#FBB13C"/>
<circle cx="89" cy="40" r="40" fill="url(#paint0_linear)"/>
<g filter="url(#filter0_d)">
<path fill-rule="evenodd" clip-rule="evenodd" d="M78.9481 13.2634C86.6293 22.4887 92.1216 25.0848 98.7087 30.9956C102.767 23.9973 106.825 22.3851 110.883 10C111.226 19.7687 104.455 29.3303 102.883 39.0993C101.209 49.4981 102.817 60.104 101.143 70.5036C99.8946 64.0254 98.646 57.5469 97.3973 51.0687L87.6577 71C86.2061 61.3773 94.3288 50.5111 92.8772 40.8881C91.4257 31.2653 81.2204 23.2995 78.9479 13.2626L78.9481 13.2634ZM97.6708 16.2208C100.463 16.2208 102.728 18.4855 102.728 21.2779C102.728 24.0703 100.463 26.3349 97.6708 26.3349C94.8783 26.3349 92.6138 24.0702 92.6138 21.2779C92.6138 18.4854 94.8785 16.2208 97.6708 16.2208Z" fill="black"/>
</g>
<g filter="url(#filter1_d)">
<path fill-rule="evenodd" clip-rule="evenodd" d="M72.0003 13.2634C79.6814 22.4887 85.1737 25.0848 91.7608 30.9956C95.819 23.9973 99.8772 22.3851 103.935 10C104.278 19.7687 97.5072 29.3303 95.9348 39.0993C94.2609 49.4981 95.8694 60.104 94.1955 70.5036C92.9467 64.0254 91.6981 57.5469 90.4494 51.0687L80.7098 71C79.2582 61.3773 87.381 50.5111 85.9293 40.8881C84.4778 31.2653 74.2725 23.2995 72 13.2626L72.0003 13.2634ZM90.7229 16.2208C93.5154 16.2208 95.78 18.4855 95.78 21.2779C95.78 24.0703 93.5153 26.3349 90.7229 26.3349C87.9305 26.3349 85.6659 24.0702 85.6659 21.2779C85.6659 18.4854 87.9306 16.2208 90.7229 16.2208Z" fill="#FBB13C"/>
</g>
<defs>
<filter id="filter0_d" x="78.9479" y="10" width="37.9479" height="67" filterUnits="userSpaceOnUse" color-interpolation-filters="sRGB">
<feFlood flood-opacity="0" result="BackgroundImageFix"/>
<feColorMatrix in="SourceAlpha" type="matrix" values="0 0 0 0 0 0 0 0 0 0 0 0 0 0 0 0 0 0 127 0"/>
<feOffset dx="4" dy="4"/>
<feGaussianBlur stdDeviation="1"/>
<feColorMatrix type="matrix" values="0 0 0 0 0 0 0 0 0 0 0 0 0 0 0 0 0 0 0.25 0"/>
<feBlend mode="normal" in2="BackgroundImageFix" result="effect1_dropShadow"/>
<feBlend mode="normal" in="SourceGraphic" in2="effect1_dropShadow" result="shape"/>
</filter>
<filter id="filter1_d" x="72" y="10" width="37.9479" height="67" filterUnits="userSpaceOnUse" color-interpolation-filters="sRGB">
<feFlood flood-opacity="0" result="BackgroundImageFix"/>
<feColorMatrix in="SourceAlpha" type="matrix" values="0 0 0 0 0 0 0 0 0 0 0 0 0 0 0 0 0 0 127 0"/>
<feOffset dx="4" dy="4"/>
<feGaussianBlur stdDeviation="1"/>
<feColorMatrix type="matrix" values="0 0 0 0 0 0 0 0 0 0 0 0 0 0 0 0 0 0 0.25 0"/>
<feBlend mode="normal" in2="BackgroundImageFix" result="effect1_dropShadow"/>
<feBlend mode="normal" in="SourceGraphic" in2="effect1_dropShadow" result="shape"/>
</filter>
<linearGradient id="paint0_linear" x1="119" y1="65" x2="57" y2="11.5" gradientUnits="userSpaceOnUse">
<stop/>
<stop offset="1" stop-color="#FBB13C"/>
</linearGradient>
</defs>
</svg>
