<svg width="199" height="134" viewBox="0 0 199 134" fill="none" xmlns="http://www.w3.org/2000/svg">
<path d="M94.8401 68.2261C92.8101 69.5761 90.7401 69.8461 88.7101 68.2861C86.7001 66.7361 86.5201 64.6162 87.2901 62.0162C84.6601 62.5862 82.2901 62.5661 80.7401 60.2261C79.4101 58.2161 79.7301 56.2561 81.0401 54.3561C81.2001 54.1961 81.3701 54.0361 81.5301 53.8761C82.4701 53.1961 83.5601 52.5462 84.6601 52.7662C86.6601 53.1662 86.2901 52.2361 86.4001 50.8361C86.5501 48.8861 86.3401 48.0961 84.1601 48.4061C83.3701 48.5161 82.4601 47.8161 81.6001 47.4761C81.3701 47.2461 81.1401 47.0161 80.9101 46.7861C79.7501 44.8461 79.4001 42.8761 80.8001 40.9161C82.3501 38.7461 84.5501 38.5561 87.2501 39.2761C86.5701 36.6161 86.6701 34.2861 89.0001 32.7361C91.0001 31.4161 92.9601 31.7461 94.8501 33.0561C95.0101 33.2161 95.1701 33.3861 95.3301 33.5461C95.7201 34.4861 96.5401 35.5061 96.4001 36.3661C96.0101 38.6661 97.1101 38.2561 98.7101 38.3861C100.63 38.5461 100.8 38.0161 100.74 36.3761C100.71 35.4461 101.44 34.4961 101.83 33.5461C102 33.3761 102.17 33.1961 102.34 33.0261C104.35 31.6061 106.43 31.3661 108.45 32.9061C110.47 34.4361 110.71 36.5461 109.92 39.1261C112.48 38.6861 114.88 38.5761 116.45 40.9361C117.78 42.9461 117.48 44.9061 116.21 46.8161C116.02 47.0061 115.82 47.2061 115.63 47.3961C114.67 47.7661 113.67 48.5361 112.77 48.4361C110.82 48.2161 110.84 48.9061 110.86 50.5661C110.88 52.1661 110.79 52.9361 112.77 52.7261C113.67 52.6261 114.67 53.3961 115.63 53.7761C115.83 53.9761 116.03 54.1661 116.22 54.3661C117.57 56.3861 117.83 58.4561 116.29 60.4661C114.76 62.4561 112.68 62.7761 110.08 61.9261C110.61 64.6061 110.52 67.0561 108.04 68.5961C106.14 69.7761 104.25 69.4561 102.44 68.2961C102.2 68.0461 101.95 67.8061 101.71 67.5561C100.75 66.1361 100.51 64.5561 100.77 62.9061C98.0501 62.5961 95.7801 62.6761 96.0601 66.2861C96.0901 66.7161 95.6101 67.1961 95.3701 67.6461C95.2001 67.8561 95.0201 68.0461 94.8401 68.2261ZM107.89 59.9161C106.33 58.9661 109.61 55.9861 106.12 55.9761C104.34 55.9661 103.93 56.5761 103.94 58.2261C103.97 61.6661 106.9 58.3961 107.89 59.9161ZM89.3901 59.9461C90.3501 58.6362 93.8301 61.7361 93.2301 57.4861C92.7501 54.1061 90.6001 56.7661 89.4101 55.8961C89.9001 57.3061 89.3801 58.4861 89.3901 59.9461ZM108.01 41.3961C103.88 41.8261 103.98 41.8361 103.87 42.7961C103.47 46.1261 105.98 44.9861 107.93 45.5061C107.34 43.9761 107.79 42.7161 108.01 41.3961ZM89.3501 41.2161C89.5801 42.7161 89.7201 44.0061 89.5001 45.4561C90.6401 44.4361 92.9201 46.9561 93.3001 43.6061C93.7801 39.4661 90.2801 42.7561 89.3501 41.2161ZM97.0101 50.3661C97.0801 51.2461 96.4101 52.5061 98.2201 52.1561C99.1301 51.9761 100.31 52.6261 100.16 50.7261C100.06 49.4361 99.9901 48.9361 98.5101 49.0261C97.4001 49.1061 96.6001 48.9961 97.0101 50.3661Z" fill="#F2DCDC" fill-opacity="0.25"/>
<path d="M95.3301 33.566C95.1701 33.406 95.0101 33.236 94.8501 33.076C94.8301 32.866 94.8501 32.646 94.7701 32.456C93.7201 30.146 93.6801 27.956 95.8301 26.266C97.5801 24.886 99.5501 24.886 101.31 26.246C103.47 27.926 103.44 30.116 102.42 32.436C102.34 32.616 102.36 32.846 102.33 33.046C102.16 33.216 101.99 33.396 101.82 33.566C99.6701 34.456 97.5001 34.436 95.3301 33.566Z" fill="#F2DCDC" fill-opacity="0.25"/>
<path d="M116.23 54.4064C116.03 54.2064 115.83 54.0164 115.64 53.8164C114.73 51.6964 114.74 49.5664 115.64 47.4464C115.83 47.2564 116.03 47.0564 116.22 46.8664C116.91 46.6564 117.59 46.3864 118.29 46.2464C120.3 45.8664 122.03 46.3564 123.18 48.1364C124.23 49.7664 124.23 51.4864 123.19 53.1164C122.04 54.9064 120.31 55.3964 118.31 55.0164C117.6 54.8864 116.92 54.6064 116.23 54.4064Z" fill="#F2DCDC" fill-opacity="0.25"/>
<path d="M101.72 67.5864C101.96 67.8364 102.21 68.0764 102.45 68.3264C102.58 68.8264 102.72 69.3264 102.85 69.8264C103.41 71.9464 103.07 73.8364 101.19 75.1364C99.4601 76.3264 97.6001 76.3064 95.9001 75.0664C94.0501 73.7164 93.7601 71.8164 94.3801 69.7164C94.5301 69.2164 94.6801 68.7264 94.8401 68.2264C95.0201 68.0464 95.2001 67.8664 95.3801 67.6764C97.4801 66.7864 99.5901 66.8064 101.72 67.5864Z" fill="#F2DCDC" fill-opacity="0.25"/>
<path d="M81.54 53.8865C81.38 54.0465 81.21 54.2064 81.05 54.3664C78.52 55.1764 75.96 55.9064 74.07 53.1764C72.97 51.5864 72.94 49.8464 74 48.2164C75.8 45.4264 78.36 46.0464 80.92 46.8064C81.15 47.0364 81.38 47.2664 81.61 47.4964C82.45 49.6364 82.37 51.7665 81.54 53.8865Z" fill="#6D6868"/>
<path d="M123.75 64.4264C123.8 66.7764 121.69 68.8964 119.33 68.8464C117.1 68.8064 115.11 66.8164 115.06 64.5864C115.01 62.2264 117.12 60.1164 119.47 60.1664C121.72 60.2064 123.71 62.1864 123.75 64.4264Z" fill="#F2DCDC" fill-opacity="0.25"/>
<path d="M77.8201 68.8064C75.4901 68.8264 73.4101 66.7064 73.4801 64.3864C73.5501 62.1764 75.5301 60.2264 77.7401 60.1964C80.0701 60.1764 82.1501 62.2964 82.0801 64.6164C82.0101 66.8364 80.0301 68.7864 77.8201 68.8064Z" fill="#F2DCDC" fill-opacity="0.25"/>
<path d="M89.0301 72.2964C89.1201 74.6264 87.05 76.7665 84.71 76.7665C82.5 76.7665 80.49 74.8264 80.4 72.5964C80.31 70.2764 82.38 68.1265 84.72 68.1265C86.94 68.1365 88.9501 70.0664 89.0301 72.2964Z" fill="#6D6868"/>
<path d="M119.17 41.0765C116.81 40.9265 114.86 38.6665 115.1 36.3565C115.33 34.1165 117.45 32.2865 119.65 32.4265C122 32.5765 123.96 34.8365 123.72 37.1465C123.49 39.3865 121.37 41.2165 119.17 41.0765Z" fill="#F2DCDC" fill-opacity="0.25"/>
<path d="M77.63 32.4465C79.82 32.3565 81.9 34.2265 82.08 36.4465C82.27 38.7465 80.28 40.9665 77.94 41.0565C75.62 41.1465 73.48 39.0765 73.49 36.7465C73.48 34.5365 75.41 32.5365 77.63 32.4465Z" fill="#F2DCDC" fill-opacity="0.25"/>
<path d="M116.8 29.8361C116.79 32.1861 114.63 34.2561 112.3 34.1461C110.07 34.0461 108.14 32.0261 108.15 29.7961C108.16 27.4461 110.32 25.3761 112.65 25.4861C114.88 25.5861 116.81 27.6061 116.8 29.8361Z" fill="#F2DCDC" fill-opacity="0.25"/>
<path d="M84.7401 25.5064C87.0701 25.5164 89.1301 27.6664 89.0201 29.9864C88.9201 32.2064 86.9001 34.1264 84.7001 34.1164C82.3701 34.1064 80.3101 31.9564 80.4101 29.6364C80.5201 27.4264 82.5301 25.4964 84.7401 25.5064Z" fill="#F2DCDC" fill-opacity="0.25"/>
<path d="M116.8 71.3965C116.83 73.7465 114.71 75.8365 112.37 75.7765C110.14 75.7165 108.18 73.7265 108.15 71.4965C108.12 69.1465 110.23 67.0565 112.58 67.1165C114.81 67.1765 116.77 69.1565 116.8 71.3965Z" fill="#F2DCDC" fill-opacity="0.25"/>
<path d="M87.6501 78.1365C88.0001 75.6965 89.3801 74.3865 91.8401 74.4065C94.1901 74.4265 95.9102 76.4265 95.6102 78.7965C95.3002 81.2665 93.7501 82.5065 91.3201 82.3265C88.8401 82.1465 87.7201 80.5365 87.6501 78.1365Z" fill="#F2DCDC" fill-opacity="0.25"/>
<path d="M126.34 61.6064C123.9 61.3864 122.47 60.1164 122.35 57.6364C122.24 55.2764 124.15 53.3964 126.51 53.5764C128.97 53.7564 130.37 55.1963 130.33 57.6563C130.29 60.1363 128.78 61.3964 126.34 61.6064Z" fill="#6D6868"/>
<path d="M74.8201 57.5263C74.6301 59.9763 73.3901 61.4763 70.8801 61.4963C68.4001 61.5163 66.9401 60.1063 66.9101 57.6163C66.8801 55.1363 68.2901 53.6863 70.7801 53.6463C73.2901 53.6063 74.5801 55.0663 74.8201 57.5263Z" fill="#F2DCDC" fill-opacity="0.25"/>
<path d="M109.57 78.336C109.39 80.756 108.15 82.286 105.67 82.356C103.21 82.426 101.75 81.056 101.54 78.586C101.34 76.226 103.19 74.2861 105.56 74.3761C108.03 74.4761 109.33 75.886 109.57 78.336Z" fill="#F2DCDC" fill-opacity="0.25"/>
<path d="M126.28 47.7265C123.83 47.4665 122.43 46.1665 122.35 43.6865C122.28 41.3265 124.23 39.4765 126.59 39.6965C129.05 39.9265 130.42 41.3965 130.33 43.8565C130.24 46.3265 128.7 47.5565 126.28 47.7265Z" fill="#F2DCDC" fill-opacity="0.25"/>
<path d="M71.0001 39.7061C73.4401 40.0061 74.8601 41.3561 74.7601 43.8361C74.6601 46.3261 73.1601 47.686 70.6801 47.606C68.1901 47.516 66.8301 46.006 66.9101 43.536C67.0001 41.026 68.5501 39.8361 71.0001 39.7061Z" fill="#F2DCDC" fill-opacity="0.25"/>
<path d="M95.6701 22.7763C95.4101 25.3863 94.1101 26.8463 91.6001 26.8063C89.1001 26.7663 87.6801 25.3063 87.7201 22.8163C87.7501 20.3163 89.2201 18.9163 91.7101 18.9263C94.2401 18.9463 95.4401 20.5063 95.6701 22.7763Z" fill="#F2DCDC" fill-opacity="0.25"/>
<path d="M109.55 22.9161C109.32 25.3561 108.04 26.7561 105.56 26.8461C103.2 26.9261 101.37 25.0261 101.56 22.6661C101.76 20.2061 103.21 18.8461 105.66 18.9161C108.14 18.9861 109.37 20.4961 109.55 22.9161Z" fill="#F2DCDC" fill-opacity="0.25"/>
<path d="M77.8901 82.036C75.7101 81.786 74.2601 80.646 74.2101 78.456C74.1601 76.276 75.5401 74.856 77.7101 74.806C79.8901 74.756 81.3001 76.136 81.3601 78.296C81.4101 80.496 79.9801 81.676 77.8901 82.036Z" fill="#F2DCDC" fill-opacity="0.25"/>
<path d="M98.6601 88.9962C96.5101 88.7462 95.0501 87.5962 95.0001 85.4062C94.9501 83.2162 96.3401 81.7862 98.5201 81.7362C100.71 81.6862 102.13 83.0762 102.19 85.2462C102.25 87.4462 100.82 88.6462 98.6601 88.9962Z" fill="#F2DCDC" fill-opacity="0.25"/>
<path d="M133.55 46.9762C135.49 47.2862 136.81 48.4562 136.93 50.6362C137.04 52.6062 134.99 54.5362 133.06 54.2662C130.93 53.9762 129.68 52.6562 129.66 50.4662C129.63 48.6062 131.52 46.9262 133.55 46.9762Z" fill="#F2DCDC" fill-opacity="0.25"/>
<path d="M67.54 50.5963C67.19 52.8363 66 54.2363 63.82 54.1863C61.66 54.1263 60.29 52.7163 60.35 50.5463C60.4 48.3863 61.82 47.0263 63.99 47.0663C66.17 47.1163 67.26 48.5963 67.54 50.5963Z" fill="#F2DCDC" fill-opacity="0.25"/>
<path d="M98.5401 12.2861C100.67 12.5361 102.13 13.6861 102.16 15.8661C102.2 18.0462 100.82 19.4561 98.6501 19.5061C96.4701 19.5561 95.0601 18.1761 95.0101 16.0061C94.9701 13.8161 96.3901 12.6261 98.5401 12.2861Z" fill="#F2DCDC" fill-opacity="0.25"/>
<path d="M81.4101 22.8163C81.1701 24.9363 80.0301 26.3863 77.8601 26.4263C75.6901 26.4763 74.2801 25.1063 74.2301 22.9463C74.1801 20.7763 75.5501 19.3663 77.7101 19.3163C79.8801 19.2563 81.0701 20.6663 81.4101 22.8163Z" fill="#F2DCDC" fill-opacity="0.25"/>
<path d="M123.08 78.4465C122.72 80.6065 121.53 82.0365 119.33 81.9765C117.15 81.9165 115.76 80.4865 115.82 78.2965C115.88 76.1165 117.3 74.7365 119.49 74.7865C121.69 74.8365 122.83 76.3065 123.08 78.4465Z" fill="#F2DCDC" fill-opacity="0.25"/>
<path d="M119.35 19.2061C121.5 19.4561 122.96 20.6061 123 22.8061C123.04 24.9961 121.66 26.426 119.48 26.476C117.29 26.526 115.87 25.1361 115.81 22.9561C115.76 20.7461 117.19 19.5561 119.35 19.2061Z" fill="#F2DCDC" fill-opacity="0.25"/>
<path d="M70.8 67.8062C73.04 68.1562 74.45 69.3461 74.39 71.5261C74.34 73.6861 72.93 75.0562 70.76 75.0062C68.6 74.9562 67.24 73.5462 67.27 71.3762C67.32 69.1862 68.8 68.0862 70.8 67.8062Z" fill="#6D6868"/>
<path d="M126.4 33.4864C124.26 33.2264 122.79 32.0764 122.75 29.8864C122.71 27.6964 124.1 26.2764 126.27 26.2264C128.46 26.1764 129.88 27.5664 129.93 29.7464C130 31.9464 128.57 33.1364 126.4 33.4864Z" fill="#F2DCDC" fill-opacity="0.25"/>
<path d="M74.4801 29.7062C74.2301 31.8862 73.0901 33.3262 70.9201 33.3662C68.7501 33.4062 67.3401 32.0462 67.2901 29.8862C67.2401 27.7162 68.6101 26.3162 70.7701 26.2562C72.9501 26.1962 74.1201 27.6162 74.4801 29.7062Z" fill="#6D6868"/>
<path d="M130.04 71.5261C129.69 73.6561 128.52 74.9761 126.34 75.0861C124.36 75.1861 122.45 73.1361 122.72 71.2061C123.02 69.0761 124.35 67.7361 126.52 67.8461C128.67 67.9461 129.81 69.3961 130.04 71.5261Z" fill="#F2DCDC" fill-opacity="0.25"/>
<path d="M133.39 33.416C135.52 33.636 136.68 34.816 136.58 36.936C136.47 39.086 135.13 40.166 133.02 40.036C131.04 39.916 129.96 38.696 129.99 36.716C130.02 34.566 131.29 33.526 133.39 33.416Z" fill="#6D6868"/>
<path d="M133.38 67.8764C131.16 67.6764 129.94 66.5763 129.98 64.4563C130.01 62.3463 131.24 61.1664 133.34 61.1964C135.45 61.2264 136.62 62.4563 136.61 64.5563C136.6 66.6963 135.29 67.6864 133.38 67.8764Z" fill="#F2DCDC" fill-opacity="0.25"/>
<path d="M63.7701 67.8063C61.6701 67.5663 60.5301 66.4062 60.6501 64.2962C60.7701 62.1562 62.1101 61.1063 64.1901 61.2463C66.1501 61.3763 67.2001 62.5963 67.1701 64.5563C67.1201 66.7063 65.8601 67.7163 63.7701 67.8063Z" fill="#F2DCDC" fill-opacity="0.25"/>
<path d="M112.47 12.6162C114.57 12.7762 115.79 13.8762 115.75 16.0162C115.7 18.1562 114.44 19.2862 112.32 19.2162C110.35 19.1562 109.23 17.9962 109.19 16.0262C109.16 13.8762 110.36 12.7762 112.47 12.6162Z" fill="#F2DCDC" fill-opacity="0.25"/>
<path d="M64.1201 40.0662C61.9001 39.9362 60.6401 38.8962 60.6501 36.7562C60.6601 34.6262 61.8701 33.4662 63.9801 33.4962C65.9401 33.5162 67.0801 34.6361 67.1701 36.5961C67.2601 38.7361 66.0501 39.8162 64.1201 40.0662Z" fill="#F2DCDC" fill-opacity="0.25"/>
<path d="M115.82 85.3261C115.57 87.5761 114.39 88.736 112.26 88.616C110.11 88.496 109.04 87.146 109.18 85.036C109.31 83.056 110.55 81.996 112.52 82.026C114.71 82.056 115.67 83.3861 115.82 85.3261Z" fill="#F2DCDC" fill-opacity="0.25"/>
<path d="M84.83 88.656C82.58 88.466 81.38 87.346 81.45 85.216C81.52 83.076 82.8 81.966 84.91 82.046C86.88 82.126 87.98 83.296 88.01 85.276C88.03 87.446 86.76 88.456 84.83 88.656Z" fill="#F2DCDC" fill-opacity="0.25"/>
<path d="M88.0201 16.0661C87.7801 18.1661 86.6201 19.3062 84.5101 19.1862C82.3701 19.0662 81.3201 17.7262 81.4601 15.6462C81.5901 13.6862 82.8101 12.6362 84.7701 12.6662C86.9201 12.7162 87.9201 13.9761 88.0201 16.0661Z" fill="#F2DCDC" fill-opacity="0.25"/>
<path d="M140.21 60.5764C138.31 60.2064 137.14 59.1663 137.3 57.3363C137.46 55.5563 138.68 54.4564 140.53 54.6364C142.18 54.8064 143.23 55.9464 143.17 57.6264C143.11 59.4764 141.85 60.3664 140.21 60.5764Z" fill="#F2DCDC" fill-opacity="0.25"/>
<path d="M56.9701 60.4661C55.2001 60.2861 54.0601 59.3061 54.1001 57.4661C54.1401 55.7961 55.2201 54.7161 56.9001 54.7061C58.7301 54.6961 59.8501 55.8261 59.8101 57.6561C59.7901 59.3361 58.7001 60.2661 56.9701 60.4661Z" fill="#F2DCDC" fill-opacity="0.25"/>
<path d="M105.44 6.06641C107.06 6.17641 108.24 7.00641 108.4 8.69641C108.57 10.5464 107.5 11.7764 105.68 11.8764C103.85 11.9764 102.67 10.8364 102.65 8.99643C102.63 7.29643 103.72 6.33641 105.44 6.06641Z" fill="#F2DCDC" fill-opacity="0.25"/>
<path d="M143.23 43.5862C143.06 45.3562 142.12 46.5862 140.29 46.6162C138.47 46.6462 137.31 45.4862 137.29 43.6662C137.27 41.9862 138.37 40.8662 140.01 40.7562C141.85 40.6362 142.88 41.7762 143.23 43.5862Z" fill="#F2DCDC" fill-opacity="0.25"/>
<path d="M56.8801 40.7861C58.4801 40.8861 59.6401 41.7061 59.8001 43.3861C59.9701 45.2261 58.9201 46.4361 57.1101 46.5361C55.2901 46.6361 54.1301 45.5161 54.1101 43.6761C54.0901 42.0061 55.1501 41.0461 56.8801 40.7861Z" fill="#F2DCDC" fill-opacity="0.25"/>
<path d="M94.6301 92.1963C94.4501 93.9463 93.5001 95.1563 91.6901 95.1763C89.8801 95.1863 88.7501 94.0263 88.7501 92.2163C88.7501 90.5463 89.8401 89.4463 91.4801 89.3563C93.2901 89.2563 94.3201 90.3763 94.6301 92.1963Z" fill="#F2DCDC" fill-opacity="0.25"/>
<path d="M94.5901 8.94626C94.4601 10.5863 93.5901 11.7463 91.9101 11.8763C90.0701 12.0163 88.8501 10.9263 88.7801 9.09626C88.7101 7.25626 89.8701 6.10628 91.7201 6.11628C93.4001 6.11628 94.3501 7.22626 94.5901 8.94626Z" fill="#F2DCDC" fill-opacity="0.25"/>
<path d="M105.54 95.2264C103.76 94.9964 102.58 94.0164 102.62 92.1964C102.66 90.3864 103.86 89.2764 105.67 89.3464C107.32 89.4064 108.41 90.5064 108.45 92.1664C108.49 93.9864 107.34 94.9764 105.54 95.2264Z" fill="#F2DCDC" fill-opacity="0.25"/>
<path d="M133.26 81.0464C131.55 80.9064 130.59 79.9864 130.67 78.2264C130.74 76.6264 131.7 75.7464 133.3 75.7564C135.07 75.7764 135.99 76.7964 135.92 78.5364C135.85 80.1564 134.87 80.9364 133.26 81.0464Z" fill="#F2DCDC" fill-opacity="0.25"/>
<path d="M126.1 13.2861C127.96 13.3761 128.97 14.2161 128.96 15.9861C128.95 17.5761 128.05 18.5061 126.46 18.5361C124.72 18.5761 123.75 17.6361 123.75 15.8861C123.74 14.2761 124.71 13.4961 126.1 13.2861Z" fill="#F2DCDC" fill-opacity="0.25"/>
<path d="M126.39 82.666C128 82.806 128.95 83.626 128.98 85.236C129.01 86.996 128.05 87.966 126.29 87.956C124.69 87.936 123.77 87.026 123.73 85.426C123.69 83.646 124.68 82.766 126.39 82.666Z" fill="#F2DCDC" fill-opacity="0.25"/>
<path d="M133.05 20.2061C134.91 20.2961 135.93 21.1461 135.91 22.9261C135.9 24.5261 134.99 25.4661 133.39 25.4961C131.64 25.5361 130.66 24.5861 130.66 22.826C130.66 21.206 131.64 20.4061 133.05 20.2061Z" fill="#F2DCDC" fill-opacity="0.25"/>
<path d="M73.4501 15.9964C73.2901 17.5664 72.4701 18.5163 70.8601 18.5063C69.0901 18.4963 68.1701 17.4563 68.2801 15.7263C68.3801 14.1363 69.3901 13.2964 70.9801 13.3664C72.5801 13.4364 73.3501 14.4164 73.4501 15.9964Z" fill="#F2DCDC" fill-opacity="0.25"/>
<path d="M64.0001 75.7661C65.5801 75.9361 66.51 76.7861 66.49 78.4061C66.46 80.1961 65.39 81.0961 63.66 80.9661C62.05 80.8461 61.23 79.8061 61.32 78.2161C61.41 76.5961 62.4101 75.8361 64.0001 75.7661Z" fill="#F2DCDC" fill-opacity="0.25"/>
<path d="M121.89 8.90627C121.76 10.3363 121.01 11.3363 119.58 11.4063C117.99 11.4863 116.98 10.5163 117 8.92626C117.02 7.49626 117.97 6.58625 119.41 6.57625C120.86 6.56625 121.64 7.50627 121.89 8.90627Z" fill="#F2DCDC" fill-opacity="0.25"/>
<path d="M80.2401 9.00606C80.0301 10.4061 79.2701 11.3861 77.8501 11.3961C76.2801 11.4061 75.3001 10.4061 75.3901 8.83608C75.4701 7.44608 76.4401 6.53606 77.8701 6.59606C79.3001 6.64606 80.0401 7.60606 80.2401 9.00606Z" fill="#F2DCDC" fill-opacity="0.25"/>
<path d="M70.83 82.6963C72.42 82.8063 73.4 83.6163 73.42 85.2363C73.45 87.0063 72.45 87.9763 70.69 87.9062C69.08 87.8463 68.22 86.8563 68.25 85.2563C68.29 83.6363 69.24 82.8263 70.83 82.6963Z" fill="#F2DCDC" fill-opacity="0.25"/>
<path d="M140.21 73.9561C138.68 73.7361 137.69 72.9062 137.77 71.2962C137.84 69.8662 138.77 68.9662 140.22 68.9862C141.81 69.0062 142.75 69.9961 142.69 71.5861C142.62 73.0361 141.66 73.7861 140.21 73.9561Z" fill="#F2DCDC" fill-opacity="0.25"/>
<path d="M56.7801 68.9761C58.3101 69.1461 59.3001 69.8961 59.3601 71.3061C59.4301 72.8761 58.4501 73.8761 56.8701 73.8461C55.4601 73.8161 54.56 72.8661 54.55 71.4361C54.55 69.9761 55.5601 69.2761 56.7801 68.9761Z" fill="#F2DCDC" fill-opacity="0.25"/>
<path d="M64 25.4963C62.26 25.3163 61.32 24.4863 61.33 22.8763C61.35 21.1063 62.39 20.1963 64.12 20.3063C65.71 20.4063 66.54 21.4263 66.47 23.0163C66.4 24.6463 65.36 25.3463 64 25.4963Z" fill="#F2DCDC" fill-opacity="0.25"/>
<path d="M140.07 32.3061C138.59 31.9961 137.62 31.1261 137.8 29.5361C137.95 28.1461 138.92 27.2561 140.35 27.3661C141.91 27.4861 142.82 28.5061 142.66 30.0761C142.51 31.4861 141.53 32.2161 140.07 32.3061Z" fill="#F2DCDC" fill-opacity="0.25"/>
<path d="M80.2501 92.3564C79.9901 93.7564 79.2101 94.6964 77.7501 94.6764C76.3101 94.6564 75.36 93.7464 75.35 92.3064C75.34 90.7064 76.35 89.7464 77.94 89.8364C79.38 89.9264 80.1301 90.9264 80.2501 92.3564Z" fill="#F2DCDC" fill-opacity="0.25"/>
<path d="M119.25 89.7363C120.92 89.9763 121.92 90.7863 121.85 92.3763C121.79 93.7863 120.86 94.6964 119.44 94.6964C117.87 94.6863 116.92 93.7164 116.97 92.1364C117.01 90.6964 118.03 90.0163 119.25 89.7363Z" fill="#F2DCDC" fill-opacity="0.25"/>
<path d="M59.4001 29.8763C59.1301 31.2963 58.3401 32.2463 56.8801 32.1863C55.4501 32.1263 54.5301 31.1762 54.5801 29.7262C54.6401 28.2962 55.5901 27.3763 57.0401 27.4263C58.4901 27.4863 59.2401 28.4663 59.4001 29.8763Z" fill="#F2DCDC" fill-opacity="0.25"/>
<path d="M149.35 50.5764C149.21 51.9864 148.48 52.7964 147.14 52.7864C145.8 52.7764 145 51.9464 145.01 50.6164C145.02 49.2764 145.85 48.4764 147.18 48.4864C148.54 48.4864 149.22 49.3364 149.35 50.5764Z" fill="#F2DCDC" fill-opacity="0.25"/>
<path d="M114.37 98.956C114.32 100.226 113.77 100.956 112.69 101.066C111.46 101.186 110.65 100.536 110.61 99.276C110.57 98.026 111.31 97.326 112.56 97.336C113.68 97.346 114.19 98.106 114.37 98.956Z" fill="#F2DCDC" fill-opacity="0.25"/>
<path d="M96.4701 99.2363C96.6701 97.7363 97.4601 97.0063 98.7901 97.1163C100.15 97.2263 100.82 98.1463 100.68 99.4663C100.56 100.636 99.7701 101.326 98.5601 101.286C97.1801 101.256 96.5801 100.386 96.4701 99.2363Z" fill="#F2DCDC" fill-opacity="0.25"/>
<path d="M86.6001 99.186C86.4701 100.366 85.8401 101.106 84.6001 101.046C83.5301 100.996 82.8701 100.306 82.8701 99.236C82.8701 98.006 83.6101 97.306 84.8301 97.356C85.9101 97.396 86.4601 98.106 86.6001 99.186Z" fill="#F2DCDC" fill-opacity="0.25"/>
<path d="M86.5801 2.07619C86.4301 3.14619 85.8601 3.87621 84.7801 3.87621C83.5401 3.88621 82.8101 3.11619 82.9101 1.88619C82.9901 0.83619 83.7201 0.176196 84.8201 0.236196C85.9001 0.296196 86.4601 1.00619 86.5801 2.07619Z" fill="#F2DCDC" fill-opacity="0.25"/>
<path d="M100.68 2.06625C100.51 3.56625 99.6701 4.23626 98.3301 4.10626C97.1101 3.98626 96.4701 3.16625 96.5401 1.94625C96.6301 0.536254 97.5201 -0.113738 98.8601 0.0162617C100.09 0.126262 100.64 0.96625 100.68 2.06625Z" fill="#F2DCDC" fill-opacity="0.25"/>
<path d="M114.38 1.98605C114.16 3.31605 113.47 4.02605 112.25 3.89605C111.21 3.78606 110.55 3.07605 110.62 1.98605C110.7 0.766051 111.48 0.0960525 112.69 0.206052C113.76 0.316052 114.24 1.09605 114.38 1.98605Z" fill="#F2DCDC" fill-opacity="0.25"/>
<path d="M51.8901 36.7465C51.7601 37.8165 51.1901 38.5465 50.1101 38.5665C48.8701 38.5865 48.1301 37.8265 48.2101 36.5965C48.2801 35.5365 49.0001 34.8765 50.1001 34.9265C51.1901 34.9765 51.7501 35.6865 51.8901 36.7465Z" fill="#F2DCDC" fill-opacity="0.25"/>
<path d="M149.09 36.5561C149 37.9161 148.39 38.6361 147.14 38.6461C146.06 38.6461 145.37 38.0361 145.28 36.9661C145.18 35.7561 145.78 34.9661 147.03 34.8761C148.3 34.7761 148.9 35.5261 149.09 36.5561Z" fill="#F2DCDC" fill-opacity="0.25"/>
<path d="M52.0701 50.6363C51.9801 51.9363 51.2801 52.6963 49.9101 52.6463C48.7001 52.6063 48.0001 51.8763 48.0001 50.6663C47.9901 49.2963 48.7701 48.5563 50.1401 48.5963C51.3501 48.6463 51.9801 49.3863 52.0701 50.6363Z" fill="#F2DCDC" fill-opacity="0.25"/>
<path d="M51.8901 64.5564C51.7301 65.6164 51.1401 66.3364 50.0601 66.3264C48.8201 66.3164 48.1001 65.5364 48.2201 64.3064C48.3201 63.2564 49.0601 62.5964 50.1601 62.6864C51.2301 62.7664 51.7901 63.4764 51.8901 64.5564Z" fill="#F2DCDC" fill-opacity="0.25"/>
<g filter="url(#filter0_d)">
<path d="M149.08 64.4664C149 65.6764 148.39 66.3964 147.14 66.3964C146.06 66.3964 145.37 65.7864 145.28 64.7164C145.18 63.5064 145.78 62.7065 147.03 62.6265C148.27 62.5465 148.94 63.2264 149.08 64.4664Z" fill="#5A5858"/>
</g>
<path d="M41.3828 122.016C40.9974 121.995 40.6276 121.938 40.2734 121.844C39.9297 121.74 39.5859 121.62 39.2422 121.484C38.8984 121.349 38.5547 121.214 38.2109 121.078C37.8672 120.932 37.5078 120.812 37.1328 120.719C36.7682 120.615 36.3776 120.547 35.9609 120.516C35.5547 120.474 35.112 120.495 34.6328 120.578C34.4974 120.609 34.3516 120.682 34.1953 120.797C34.0495 120.911 33.9089 121.036 33.7734 121.172C33.638 121.307 33.5182 121.438 33.4141 121.562C33.3099 121.677 33.237 121.755 33.1953 121.797C33.1745 121.797 33.138 121.802 33.0859 121.812C33.0443 121.812 33.013 121.812 32.9922 121.812C32.7109 121.812 32.5703 121.672 32.5703 121.391C32.5703 121.37 32.5703 121.339 32.5703 121.297C32.5807 121.245 32.5859 121.208 32.5859 121.188C33.2526 120.531 33.9193 119.875 34.5859 119.219C35.2526 118.552 35.8776 117.865 36.4609 117.156C37.0547 116.448 37.5807 115.703 38.0391 114.922C38.5078 114.13 38.8724 113.281 39.1328 112.375C38.7161 112.406 38.2682 112.448 37.7891 112.5C37.3203 112.552 36.8516 112.635 36.3828 112.75C35.9141 112.854 35.4661 113 35.0391 113.188C34.612 113.365 34.237 113.604 33.9141 113.906C33.7578 113.906 33.6641 113.849 33.6328 113.734C33.6016 113.609 33.5859 113.49 33.5859 113.375C33.5859 113.281 33.5859 113.214 33.5859 113.172C33.5964 113.12 33.612 113.083 33.6328 113.062C33.6641 113.031 33.7057 113.005 33.7578 112.984C33.8203 112.964 33.9089 112.927 34.0234 112.875C34.4193 112.719 34.8359 112.547 35.2734 112.359C35.7109 112.172 36.1536 112 36.6016 111.844C37.0599 111.677 37.5182 111.536 37.9766 111.422C38.4453 111.307 38.9141 111.25 39.3828 111.25C39.4141 111.25 39.4609 111.25 39.5234 111.25C39.5964 111.25 39.6693 111.255 39.7422 111.266C39.8151 111.266 39.8828 111.266 39.9453 111.266C40.0182 111.266 40.0651 111.266 40.0859 111.266C40.3047 111.349 40.4297 111.458 40.4609 111.594C40.4922 111.729 40.5078 111.88 40.5078 112.047C40.5078 112.359 40.4766 112.635 40.4141 112.875C40.3516 113.104 40.2422 113.38 40.0859 113.703C39.763 114.161 39.4089 114.656 39.0234 115.188C38.638 115.708 38.2318 116.24 37.8047 116.781C37.388 117.323 36.9609 117.854 36.5234 118.375C36.0859 118.885 35.6536 119.354 35.2266 119.781C35.3828 119.771 35.6068 119.76 35.8984 119.75C36.1901 119.729 36.5026 119.724 36.8359 119.734C37.1797 119.734 37.513 119.755 37.8359 119.797C38.1693 119.828 38.4505 119.885 38.6797 119.969C38.9401 120.073 39.1745 120.188 39.3828 120.312C39.6016 120.427 39.8099 120.536 40.0078 120.641C40.2161 120.734 40.4297 120.818 40.6484 120.891C40.8672 120.953 41.112 120.984 41.3828 120.984C41.8516 120.984 42.3099 120.927 42.7578 120.812C43.2057 120.698 43.6484 120.578 44.0859 120.453C44.5234 120.318 44.9453 120.193 45.3516 120.078C45.7682 119.964 46.1693 119.906 46.5547 119.906V120.172C46.5547 120.182 46.4974 120.224 46.3828 120.297C46.2786 120.359 46.1536 120.438 46.0078 120.531C45.862 120.615 45.7057 120.698 45.5391 120.781C45.3828 120.865 45.2526 120.932 45.1484 120.984C44.5026 121.286 43.8828 121.536 43.2891 121.734C42.7057 121.922 42.0703 122.016 41.3828 122.016ZM46.1172 120.453C46.1172 119.932 46.263 119.422 46.5547 118.922C46.8568 118.422 47.237 117.979 47.6953 117.594C48.1536 117.208 48.6589 116.901 49.2109 116.672C49.763 116.432 50.2891 116.312 50.7891 116.312C50.987 116.312 51.1745 116.349 51.3516 116.422C51.5286 116.495 51.7161 116.531 51.9141 116.531H52.0078C52.0599 116.417 52.1589 116.214 52.3047 115.922C52.4609 115.63 52.6224 115.323 52.7891 115C52.9661 114.677 53.1328 114.375 53.2891 114.094C53.4453 113.802 53.5599 113.599 53.6328 113.484C53.7474 113.286 53.9036 113.042 54.1016 112.75C54.2995 112.448 54.4922 112.156 54.6797 111.875C54.8776 111.594 55.0495 111.354 55.1953 111.156C55.3411 110.958 55.4245 110.859 55.4453 110.859L56.0547 111.469C56.0547 111.49 56.013 111.583 55.9297 111.75C55.8568 111.917 55.7578 112.135 55.6328 112.406C55.5078 112.667 55.362 112.958 55.1953 113.281C55.0391 113.604 54.8776 113.927 54.7109 114.25C54.5443 114.573 54.3828 114.885 54.2266 115.188C54.0807 115.479 53.9505 115.724 53.8359 115.922C53.513 116.411 53.1849 116.911 52.8516 117.422C52.5286 117.922 52.2682 118.391 52.0703 118.828C51.8828 119.255 51.7891 119.63 51.7891 119.953C51.7995 120.276 51.9766 120.5 52.3203 120.625C52.9453 120.51 53.4141 120.464 53.7266 120.484C54.0391 120.505 54.2318 120.562 54.3047 120.656C54.388 120.74 54.3776 120.844 54.2734 120.969C54.1693 121.083 54.0026 121.188 53.7734 121.281C53.5547 121.375 53.2995 121.438 53.0078 121.469C52.7161 121.5 52.4245 121.469 52.1328 121.375C51.8411 121.281 51.5755 121.109 51.3359 120.859C51.0964 120.609 50.9141 120.25 50.7891 119.781L48.3672 121.797C48.3672 121.797 48.3255 121.807 48.2422 121.828C48.1693 121.849 48.0755 121.87 47.9609 121.891C47.8568 121.911 47.7474 121.932 47.6328 121.953C47.5182 121.974 47.4245 121.99 47.3516 122H47.2578C47.0182 122 46.8203 121.958 46.6641 121.875C46.5182 121.781 46.4036 121.667 46.3203 121.531C46.237 121.385 46.1797 121.219 46.1484 121.031C46.1276 120.844 46.1172 120.651 46.1172 120.453ZM47.1328 120.281C47.1328 120.344 47.1276 120.417 47.1172 120.5C47.1172 120.583 47.1224 120.661 47.1328 120.734C47.1536 120.797 47.1849 120.854 47.2266 120.906C47.2786 120.958 47.3516 120.984 47.4453 120.984C47.5807 120.984 47.7422 120.938 47.9297 120.844C48.1276 120.74 48.3203 120.62 48.5078 120.484C48.6953 120.349 48.8672 120.214 49.0234 120.078C49.1901 119.943 49.3099 119.844 49.3828 119.781C49.4557 119.708 49.5911 119.578 49.7891 119.391C49.987 119.193 50.1901 118.984 50.3984 118.766C50.6172 118.547 50.8203 118.344 51.0078 118.156C51.1953 117.969 51.3255 117.833 51.3984 117.75V117.703C51.3984 117.682 51.3984 117.672 51.3984 117.672C51.4089 117.661 51.4141 117.651 51.4141 117.641C51.4141 117.547 51.3828 117.479 51.3203 117.438C51.2682 117.385 51.2005 117.354 51.1172 117.344C51.0443 117.323 50.9661 117.318 50.8828 117.328C50.7995 117.328 50.7318 117.328 50.6797 117.328C50.3047 117.328 49.9089 117.406 49.4922 117.562C49.0755 117.719 48.6901 117.932 48.3359 118.203C47.9922 118.464 47.7057 118.776 47.4766 119.141C47.2474 119.495 47.1328 119.875 47.1328 120.281ZM57.6797 120.797C57.6797 120.484 57.7422 120.198 57.8672 119.938C58.0026 119.667 58.1484 119.411 58.3047 119.172C58.4609 118.932 58.6016 118.693 58.7266 118.453C58.862 118.214 58.9297 117.958 58.9297 117.688C58.9297 117.625 58.9245 117.552 58.9141 117.469C58.9141 117.375 58.9036 117.286 58.8828 117.203C58.8724 117.12 58.8411 117.052 58.7891 117C58.7474 116.938 58.6901 116.906 58.6172 116.906C58.6068 116.906 58.5859 116.911 58.5547 116.922C58.5339 116.922 58.5234 116.927 58.5234 116.938C58.3776 117.135 58.2005 117.359 57.9922 117.609C57.7943 117.849 57.5807 118.089 57.3516 118.328C57.1224 118.568 56.8984 118.797 56.6797 119.016C56.4609 119.234 56.263 119.417 56.0859 119.562C55.9609 119.677 55.7891 119.833 55.5703 120.031C55.362 120.229 55.1484 120.427 54.9297 120.625C54.7214 120.812 54.5339 120.979 54.3672 121.125C54.2109 121.271 54.1224 121.344 54.1016 121.344L53.3828 120.734C53.4766 120.734 53.5703 120.714 53.6641 120.672C53.7474 120.63 53.8307 120.583 53.9141 120.531C54.5391 120.115 55.1016 119.635 55.6016 119.094C56.112 118.552 56.612 117.969 57.1016 117.344C57.1224 117.312 57.1745 117.224 57.2578 117.078C57.3516 116.922 57.4505 116.75 57.5547 116.562C57.6589 116.365 57.763 116.172 57.8672 115.984C57.9714 115.786 58.0495 115.63 58.1016 115.516C58.1641 115.38 58.2005 115.271 58.2109 115.188C58.2318 115.104 58.2474 115.042 58.2578 115C58.2786 114.948 58.3099 114.911 58.3516 114.891C58.3932 114.87 58.4818 114.859 58.6172 114.859C58.638 114.859 58.6849 114.865 58.7578 114.875C58.8411 114.885 58.8932 114.896 58.9141 114.906C59.0495 115.188 59.1693 115.438 59.2734 115.656C59.3776 115.875 59.4661 116.083 59.5391 116.281C59.612 116.469 59.6641 116.661 59.6953 116.859C59.737 117.057 59.7578 117.276 59.7578 117.516C59.6224 117.859 59.4714 118.214 59.3047 118.578C59.138 118.932 58.9974 119.271 58.8828 119.594C58.7682 119.917 58.6953 120.208 58.6641 120.469C58.6432 120.729 58.7005 120.938 58.8359 121.094C58.9818 121.24 59.2214 121.318 59.5547 121.328C59.8984 121.339 60.3828 121.25 61.0078 121.062C61.1745 121.146 61.1901 121.25 61.0547 121.375C60.9193 121.49 60.7109 121.599 60.4297 121.703C60.1589 121.807 59.8568 121.896 59.5234 121.969C59.2005 122.031 58.9297 122.047 58.7109 122.016C58.513 122.016 58.3464 121.984 58.2109 121.922C58.0859 121.849 57.9818 121.755 57.8984 121.641C57.8255 121.526 57.7682 121.396 57.7266 121.25C57.6953 121.104 57.6797 120.953 57.6797 120.797ZM60.4141 120.688C60.4141 120.646 60.4141 120.562 60.4141 120.438C60.4245 120.302 60.4297 120.214 60.4297 120.172C60.763 119.411 61.1901 118.708 61.7109 118.062C62.2318 117.417 62.8203 116.844 63.4766 116.344C63.4974 116.344 63.5286 116.339 63.5703 116.328C63.6224 116.307 63.6589 116.297 63.6797 116.297C63.9609 116.297 64.1901 116.359 64.3672 116.484C64.5547 116.599 64.7005 116.755 64.8047 116.953C64.9193 117.141 64.9974 117.354 65.0391 117.594C65.0807 117.823 65.1016 118.047 65.1016 118.266C65.1016 118.672 65.0078 119.099 64.8203 119.547C64.6328 119.984 64.3776 120.391 64.0547 120.766C63.7422 121.13 63.3828 121.432 62.9766 121.672C62.5703 121.901 62.1484 122.016 61.7109 122.016C61.2734 122.016 60.9453 121.901 60.7266 121.672C60.5182 121.432 60.4141 121.104 60.4141 120.688ZM61.6328 120.5C61.6328 120.615 61.6797 120.693 61.7734 120.734C61.8672 120.776 61.9609 120.797 62.0547 120.797C62.3151 120.797 62.5651 120.729 62.8047 120.594C63.0547 120.448 63.2734 120.271 63.4609 120.062C63.6589 119.844 63.8151 119.604 63.9297 119.344C64.0443 119.083 64.1016 118.833 64.1016 118.594C64.1016 118.479 64.0911 118.354 64.0703 118.219C64.0599 118.073 64.0286 117.948 63.9766 117.844C63.9245 117.729 63.8411 117.641 63.7266 117.578C63.6224 117.516 63.4714 117.505 63.2734 117.547C63.1276 117.578 62.9609 117.714 62.7734 117.953C62.5859 118.193 62.4036 118.474 62.2266 118.797C62.0599 119.109 61.9193 119.427 61.8047 119.75C61.6901 120.062 61.6328 120.312 61.6328 120.5ZM65.6953 120.984C65.737 120.557 65.8516 120.167 66.0391 119.812C66.237 119.448 66.4661 119.104 66.7266 118.781C66.9974 118.448 67.2734 118.135 67.5547 117.844C67.8464 117.542 68.1068 117.24 68.3359 116.938C68.513 116.938 68.6276 116.979 68.6797 117.062C68.7422 117.135 68.7734 117.229 68.7734 117.344C68.6901 117.438 68.5599 117.609 68.3828 117.859C68.2057 118.099 68.0234 118.359 67.8359 118.641C67.6589 118.922 67.4974 119.188 67.3516 119.438C67.2161 119.688 67.138 119.865 67.1172 119.969C67.0339 120.281 67.0339 120.479 67.1172 120.562C67.2109 120.635 67.3568 120.635 67.5547 120.562C67.763 120.479 68.0078 120.339 68.2891 120.141C68.5703 119.932 68.8568 119.703 69.1484 119.453C69.4505 119.203 69.7422 118.943 70.0234 118.672C70.3047 118.401 70.5495 118.161 70.7578 117.953H71.4453C71.4453 118.13 71.4193 118.302 71.3672 118.469C71.3151 118.625 71.2578 118.781 71.1953 118.938C71.1328 119.094 71.0755 119.25 71.0234 119.406C70.9714 119.562 70.9453 119.724 70.9453 119.891C70.9453 120.13 71.0182 120.276 71.1641 120.328C71.3203 120.38 71.4974 120.406 71.6953 120.406C71.9661 120.406 72.2474 120.354 72.5391 120.25C72.8411 120.135 73.1172 119.984 73.3672 119.797C73.6172 119.599 73.8203 119.375 73.9766 119.125C74.1432 118.865 74.2266 118.583 74.2266 118.281C74.2266 118.01 74.1849 117.766 74.1016 117.547C74.0286 117.318 73.9922 117.068 73.9922 116.797C73.9922 116.474 74.1693 116.312 74.5234 116.312C74.6797 116.312 74.8151 116.38 74.9297 116.516C75.0443 116.651 75.138 116.812 75.2109 117C75.2943 117.188 75.3516 117.38 75.3828 117.578C75.4245 117.776 75.4453 117.938 75.4453 118.062C75.4453 118.604 75.3151 119.083 75.0547 119.5C74.7943 119.917 74.4609 120.266 74.0547 120.547C73.6484 120.828 73.1953 121.042 72.6953 121.188C72.2057 121.333 71.7266 121.406 71.2578 121.406C70.862 121.406 70.5495 121.266 70.3203 120.984C70.0911 120.693 69.9714 120.354 69.9609 119.969C69.6589 120.062 69.3828 120.224 69.1328 120.453C68.8828 120.672 68.6328 120.901 68.3828 121.141C68.1328 121.37 67.8724 121.573 67.6016 121.75C67.3307 121.927 67.0339 122.016 66.7109 122.016C66.6276 122.016 66.5234 121.979 66.3984 121.906C66.2839 121.833 66.1693 121.745 66.0547 121.641C65.9505 121.536 65.862 121.427 65.7891 121.312C65.7161 121.188 65.6849 121.078 65.6953 120.984ZM74.9922 126.719C75.3255 126.177 75.7109 125.693 76.1484 125.266C76.5859 124.849 77.0339 124.453 77.4922 124.078C77.9609 123.703 78.4245 123.339 78.8828 122.984C79.3411 122.63 79.763 122.25 80.1484 121.844C80.5443 121.438 80.8828 120.99 81.1641 120.5C81.4453 120 81.638 119.422 81.7422 118.766C81.7422 118.745 81.737 118.714 81.7266 118.672C81.7266 118.62 81.7266 118.583 81.7266 118.562C81.487 118.844 81.1953 119.161 80.8516 119.516C80.5182 119.87 80.1536 120.203 79.7578 120.516C79.3724 120.828 78.9661 121.089 78.5391 121.297C78.112 121.505 77.6953 121.609 77.2891 121.609C77.1849 121.609 77.0495 121.604 76.8828 121.594C76.7266 121.573 76.5703 121.536 76.4141 121.484C76.2578 121.432 76.1224 121.359 76.0078 121.266C75.8932 121.172 75.8359 121.047 75.8359 120.891C75.8359 120.755 75.8724 120.547 75.9453 120.266C76.0182 119.984 76.1172 119.672 76.2422 119.328C76.3672 118.984 76.5078 118.635 76.6641 118.281C76.8203 117.927 76.987 117.604 77.1641 117.312C77.3411 117.021 77.513 116.781 77.6797 116.594C77.8568 116.406 78.0182 116.312 78.1641 116.312C78.3099 116.312 78.4349 116.344 78.5391 116.406C78.6432 116.469 78.6953 116.573 78.6953 116.719C78.6953 116.979 78.6016 117.24 78.4141 117.5C78.2266 117.76 78.0234 118.042 77.8047 118.344C77.5859 118.635 77.3828 118.953 77.1953 119.297C77.0078 119.641 76.9141 120.031 76.9141 120.469C77.6016 120.469 78.2214 120.328 78.7734 120.047C79.3255 119.755 79.8255 119.396 80.2734 118.969C80.7214 118.542 81.1172 118.078 81.4609 117.578C81.8047 117.078 82.1068 116.615 82.3672 116.188C82.638 115.76 82.8672 115.406 83.0547 115.125C83.2526 114.833 83.4193 114.688 83.5547 114.688C83.7526 114.688 83.8672 114.75 83.8984 114.875C83.9401 114.99 83.9609 115.135 83.9609 115.312C83.8672 115.635 83.737 116.016 83.5703 116.453C83.4036 116.88 83.2318 117.333 83.0547 117.812C82.888 118.281 82.7318 118.75 82.5859 119.219C82.4505 119.688 82.362 120.115 82.3203 120.5C82.3203 120.51 82.3203 120.526 82.3203 120.547C82.3307 120.568 82.3359 120.583 82.3359 120.594C82.5234 120.531 82.7005 120.422 82.8672 120.266C83.0339 120.109 83.1953 119.953 83.3516 119.797C83.5182 119.63 83.6849 119.484 83.8516 119.359C84.0182 119.224 84.1901 119.156 84.3672 119.156C84.3776 119.156 84.4141 119.229 84.4766 119.375C84.5495 119.521 84.5495 119.698 84.4766 119.906C84.3828 119.979 84.2109 120.104 83.9609 120.281C83.7214 120.458 83.4661 120.646 83.1953 120.844C82.9245 121.031 82.6693 121.219 82.4297 121.406C82.1901 121.583 82.0234 121.719 81.9297 121.812C81.7839 121.958 81.6328 122.167 81.4766 122.438C81.3203 122.708 81.1641 123.01 81.0078 123.344C80.8516 123.688 80.6953 124.047 80.5391 124.422C80.3932 124.797 80.2474 125.161 80.1016 125.516C79.9557 125.88 79.8099 126.214 79.6641 126.516C79.5286 126.828 79.4036 127.083 79.2891 127.281C79.237 127.365 79.1276 127.526 78.9609 127.766C78.8047 128.016 78.6276 128.281 78.4297 128.562C78.2422 128.844 78.0547 129.109 77.8672 129.359C77.6901 129.62 77.5547 129.802 77.4609 129.906C77.4193 129.958 77.3047 130.078 77.1172 130.266C76.9297 130.464 76.7161 130.677 76.4766 130.906C76.2474 131.146 76.0182 131.38 75.7891 131.609C75.5495 131.839 75.3672 132.01 75.2422 132.125C75.1172 132.198 74.9505 132.286 74.7422 132.391C74.5339 132.505 74.3203 132.599 74.1016 132.672C73.8724 132.745 73.6536 132.792 73.4453 132.812C73.2266 132.833 73.0495 132.786 72.9141 132.672C72.7786 132.568 72.7005 132.385 72.6797 132.125C72.6484 131.875 72.7057 131.516 72.8516 131.047C72.987 130.589 73.2266 130.005 73.5703 129.297C73.9141 128.589 74.388 127.729 74.9922 126.719ZM79.8984 123.359C79.8776 123.359 79.8411 123.365 79.7891 123.375C79.7474 123.396 79.7161 123.411 79.6953 123.422C79.6745 123.443 79.6276 123.479 79.5547 123.531C79.4818 123.583 79.3984 123.641 79.3047 123.703C79.2214 123.766 79.138 123.828 79.0547 123.891C78.9818 123.953 78.9297 124 78.8984 124.031C78.6068 124.24 78.2734 124.531 77.8984 124.906C77.5234 125.292 77.1328 125.714 76.7266 126.172C76.3307 126.641 75.9401 127.13 75.5547 127.641C75.1693 128.161 74.8255 128.656 74.5234 129.125C74.2109 129.604 73.9609 130.042 73.7734 130.438C73.5859 130.833 73.487 131.151 73.4766 131.391C73.4661 131.63 73.5651 131.771 73.7734 131.812C73.9818 131.854 74.3359 131.755 74.8359 131.516C74.9401 131.422 75.0911 131.281 75.2891 131.094C75.4766 130.917 75.6641 130.729 75.8516 130.531C76.0495 130.344 76.2266 130.167 76.3828 130C76.5391 129.844 76.6328 129.745 76.6641 129.703C76.7161 129.63 76.7995 129.516 76.9141 129.359C77.0286 129.203 77.1536 129.026 77.2891 128.828C77.4245 128.63 77.5651 128.422 77.7109 128.203C77.8568 127.984 77.9922 127.771 78.1172 127.562C78.2526 127.365 78.3672 127.188 78.4609 127.031C78.5651 126.875 78.638 126.755 78.6797 126.672C78.7734 126.505 78.888 126.266 79.0234 125.953C79.1693 125.651 79.3047 125.333 79.4297 125C79.5547 124.677 79.6641 124.365 79.7578 124.062C79.8516 123.76 79.8984 123.526 79.8984 123.359ZM92.2578 118.547C92.2578 118.38 92.2682 118.198 92.2891 118C92.3099 117.792 92.3568 117.604 92.4297 117.438C92.5026 117.271 92.6068 117.13 92.7422 117.016C92.888 116.901 93.0807 116.844 93.3203 116.844C93.3203 116.979 93.3047 117.104 93.2734 117.219C93.2526 117.333 93.2214 117.448 93.1797 117.562C93.1484 117.677 93.1172 117.802 93.0859 117.938C93.0651 118.062 93.0547 118.203 93.0547 118.359C93.0547 118.755 93.1068 119.125 93.2109 119.469C93.3151 119.812 93.4714 120.115 93.6797 120.375C93.8984 120.625 94.1641 120.823 94.4766 120.969C94.7995 121.115 95.1797 121.188 95.6172 121.188C95.8047 121.188 96.0339 121.146 96.3047 121.062C96.5755 120.979 96.8464 120.88 97.1172 120.766C97.388 120.651 97.638 120.536 97.8672 120.422C98.0964 120.307 98.2578 120.224 98.3516 120.172C98.5807 120.047 98.763 119.875 98.8984 119.656C99.0339 119.427 99.138 119.182 99.2109 118.922C99.2839 118.651 99.3307 118.38 99.3516 118.109C99.3724 117.828 99.3828 117.578 99.3828 117.359C99.3828 117.005 99.3464 116.661 99.2734 116.328C99.2109 115.984 99.138 115.646 99.0547 115.312C98.9818 114.979 98.9089 114.646 98.8359 114.312C98.7734 113.979 98.7422 113.641 98.7422 113.297C98.8568 112.974 99.0339 112.682 99.2734 112.422C99.5234 112.151 99.8047 111.922 100.117 111.734C100.44 111.536 100.784 111.38 101.148 111.266C101.513 111.151 101.867 111.083 102.211 111.062C102.492 111.135 102.706 111.229 102.852 111.344C102.997 111.448 103.096 111.562 103.148 111.688C103.211 111.812 103.227 111.932 103.195 112.047C103.164 112.161 103.112 112.266 103.039 112.359C102.924 112.109 102.773 111.943 102.586 111.859C102.409 111.776 102.206 111.75 101.977 111.781C101.758 111.812 101.534 111.891 101.305 112.016C101.076 112.141 100.857 112.281 100.648 112.438C100.44 112.594 100.258 112.76 100.102 112.938C99.9453 113.104 99.8307 113.25 99.7578 113.375C99.7578 113.688 99.7891 113.995 99.8516 114.297C99.9245 114.589 99.9974 114.885 100.07 115.188C100.154 115.479 100.227 115.776 100.289 116.078C100.362 116.37 100.398 116.672 100.398 116.984C100.398 117.734 100.279 118.422 100.039 119.047C99.8099 119.661 99.4714 120.193 99.0234 120.641C98.5859 121.078 98.0495 121.417 97.4141 121.656C96.7891 121.896 96.0859 122.016 95.3047 122.016C94.8151 122.016 94.3776 121.917 93.9922 121.719C93.6172 121.521 93.2995 121.26 93.0391 120.938C92.7891 120.604 92.5964 120.229 92.4609 119.812C92.3255 119.396 92.2578 118.974 92.2578 118.547ZM101.477 120.484C101.477 120.182 101.534 119.88 101.648 119.578C101.763 119.276 101.898 118.979 102.055 118.688C102.211 118.385 102.367 118.089 102.523 117.797C102.69 117.505 102.815 117.219 102.898 116.938C102.701 117.052 102.529 117.12 102.383 117.141C102.247 117.151 102.081 117.156 101.883 117.156C101.862 117.156 101.794 117.156 101.68 117.156C101.576 117.146 101.508 117.141 101.477 117.141C101.539 116.911 101.654 116.708 101.82 116.531C101.987 116.344 102.174 116.188 102.383 116.062C102.602 115.927 102.826 115.818 103.055 115.734C103.294 115.641 103.508 115.568 103.695 115.516C104.008 115.026 104.263 114.536 104.461 114.047C104.659 113.547 104.857 113.062 105.055 112.594C105.263 112.115 105.503 111.661 105.773 111.234C106.055 110.797 106.43 110.396 106.898 110.031L106.977 110.625L105.023 115.203C105.138 115.172 105.279 115.141 105.445 115.109C105.612 115.078 105.779 115.047 105.945 115.016C106.122 114.984 106.289 114.958 106.445 114.938C106.612 114.906 106.753 114.875 106.867 114.844C106.878 114.844 106.909 114.844 106.961 114.844C107.013 114.833 107.055 114.828 107.086 114.828C107.232 114.828 107.352 114.854 107.445 114.906C107.539 114.958 107.617 115.073 107.68 115.25C106.971 115.458 106.331 115.677 105.758 115.906C105.185 116.135 104.685 116.438 104.258 116.812C103.841 117.177 103.497 117.646 103.227 118.219C102.966 118.781 102.784 119.505 102.68 120.391C102.68 120.578 102.69 120.75 102.711 120.906C102.732 121.062 102.862 121.156 103.102 121.188C103.341 121.188 103.565 121.141 103.773 121.047C103.982 120.953 104.185 120.854 104.383 120.75C104.581 120.635 104.779 120.531 104.977 120.438C105.185 120.344 105.409 120.297 105.648 120.297C105.648 120.547 105.539 120.776 105.32 120.984C105.102 121.193 104.836 121.375 104.523 121.531C104.221 121.688 103.909 121.807 103.586 121.891C103.263 121.974 102.997 122.016 102.789 122.016C102.581 122.016 102.393 121.974 102.227 121.891C102.06 121.807 101.919 121.698 101.805 121.562C101.701 121.417 101.617 121.25 101.555 121.062C101.503 120.875 101.477 120.682 101.477 120.484ZM104.664 126.719C104.997 126.177 105.383 125.693 105.82 125.266C106.258 124.849 106.706 124.453 107.164 124.078C107.633 123.703 108.096 123.339 108.555 122.984C109.013 122.63 109.435 122.25 109.82 121.844C110.216 121.438 110.555 120.99 110.836 120.5C111.117 120 111.31 119.422 111.414 118.766C111.414 118.745 111.409 118.714 111.398 118.672C111.398 118.62 111.398 118.583 111.398 118.562C111.159 118.844 110.867 119.161 110.523 119.516C110.19 119.87 109.826 120.203 109.43 120.516C109.044 120.828 108.638 121.089 108.211 121.297C107.784 121.505 107.367 121.609 106.961 121.609C106.857 121.609 106.721 121.604 106.555 121.594C106.398 121.573 106.242 121.536 106.086 121.484C105.93 121.432 105.794 121.359 105.68 121.266C105.565 121.172 105.508 121.047 105.508 120.891C105.508 120.755 105.544 120.547 105.617 120.266C105.69 119.984 105.789 119.672 105.914 119.328C106.039 118.984 106.18 118.635 106.336 118.281C106.492 117.927 106.659 117.604 106.836 117.312C107.013 117.021 107.185 116.781 107.352 116.594C107.529 116.406 107.69 116.312 107.836 116.312C107.982 116.312 108.107 116.344 108.211 116.406C108.315 116.469 108.367 116.573 108.367 116.719C108.367 116.979 108.273 117.24 108.086 117.5C107.898 117.76 107.695 118.042 107.477 118.344C107.258 118.635 107.055 118.953 106.867 119.297C106.68 119.641 106.586 120.031 106.586 120.469C107.273 120.469 107.893 120.328 108.445 120.047C108.997 119.755 109.497 119.396 109.945 118.969C110.393 118.542 110.789 118.078 111.133 117.578C111.477 117.078 111.779 116.615 112.039 116.188C112.31 115.76 112.539 115.406 112.727 115.125C112.924 114.833 113.091 114.688 113.227 114.688C113.424 114.688 113.539 114.75 113.57 114.875C113.612 114.99 113.633 115.135 113.633 115.312C113.539 115.635 113.409 116.016 113.242 116.453C113.076 116.88 112.904 117.333 112.727 117.812C112.56 118.281 112.404 118.75 112.258 119.219C112.122 119.688 112.034 120.115 111.992 120.5C111.992 120.51 111.992 120.526 111.992 120.547C112.003 120.568 112.008 120.583 112.008 120.594C112.195 120.531 112.372 120.422 112.539 120.266C112.706 120.109 112.867 119.953 113.023 119.797C113.19 119.63 113.357 119.484 113.523 119.359C113.69 119.224 113.862 119.156 114.039 119.156C114.049 119.156 114.086 119.229 114.148 119.375C114.221 119.521 114.221 119.698 114.148 119.906C114.055 119.979 113.883 120.104 113.633 120.281C113.393 120.458 113.138 120.646 112.867 120.844C112.596 121.031 112.341 121.219 112.102 121.406C111.862 121.583 111.695 121.719 111.602 121.812C111.456 121.958 111.305 122.167 111.148 122.438C110.992 122.708 110.836 123.01 110.68 123.344C110.523 123.688 110.367 124.047 110.211 124.422C110.065 124.797 109.919 125.161 109.773 125.516C109.628 125.88 109.482 126.214 109.336 126.516C109.201 126.828 109.076 127.083 108.961 127.281C108.909 127.365 108.799 127.526 108.633 127.766C108.477 128.016 108.299 128.281 108.102 128.562C107.914 128.844 107.727 129.109 107.539 129.359C107.362 129.62 107.227 129.802 107.133 129.906C107.091 129.958 106.977 130.078 106.789 130.266C106.602 130.464 106.388 130.677 106.148 130.906C105.919 131.146 105.69 131.38 105.461 131.609C105.221 131.839 105.039 132.01 104.914 132.125C104.789 132.198 104.622 132.286 104.414 132.391C104.206 132.505 103.992 132.599 103.773 132.672C103.544 132.745 103.326 132.792 103.117 132.812C102.898 132.833 102.721 132.786 102.586 132.672C102.451 132.568 102.372 132.385 102.352 132.125C102.32 131.875 102.378 131.516 102.523 131.047C102.659 130.589 102.898 130.005 103.242 129.297C103.586 128.589 104.06 127.729 104.664 126.719ZM109.57 123.359C109.549 123.359 109.513 123.365 109.461 123.375C109.419 123.396 109.388 123.411 109.367 123.422C109.346 123.443 109.299 123.479 109.227 123.531C109.154 123.583 109.07 123.641 108.977 123.703C108.893 123.766 108.81 123.828 108.727 123.891C108.654 123.953 108.602 124 108.57 124.031C108.279 124.24 107.945 124.531 107.57 124.906C107.195 125.292 106.805 125.714 106.398 126.172C106.003 126.641 105.612 127.13 105.227 127.641C104.841 128.161 104.497 128.656 104.195 129.125C103.883 129.604 103.633 130.042 103.445 130.438C103.258 130.833 103.159 131.151 103.148 131.391C103.138 131.63 103.237 131.771 103.445 131.812C103.654 131.854 104.008 131.755 104.508 131.516C104.612 131.422 104.763 131.281 104.961 131.094C105.148 130.917 105.336 130.729 105.523 130.531C105.721 130.344 105.898 130.167 106.055 130C106.211 129.844 106.305 129.745 106.336 129.703C106.388 129.63 106.471 129.516 106.586 129.359C106.701 129.203 106.826 129.026 106.961 128.828C107.096 128.63 107.237 128.422 107.383 128.203C107.529 127.984 107.664 127.771 107.789 127.562C107.924 127.365 108.039 127.188 108.133 127.031C108.237 126.875 108.31 126.755 108.352 126.672C108.445 126.505 108.56 126.266 108.695 125.953C108.841 125.651 108.977 125.333 109.102 125C109.227 124.677 109.336 124.365 109.43 124.062C109.523 123.76 109.57 123.526 109.57 123.359ZM113.945 120.578C113.945 120.505 113.951 120.396 113.961 120.25C113.982 120.094 114.003 119.943 114.023 119.797C114.044 119.651 114.065 119.521 114.086 119.406C114.107 119.281 114.128 119.203 114.148 119.172L116.992 113.484C117.034 113.401 117.112 113.286 117.227 113.141C117.352 112.984 117.482 112.828 117.617 112.672C117.763 112.505 117.904 112.354 118.039 112.219C118.185 112.073 118.305 111.958 118.398 111.875C118.471 111.896 118.523 111.932 118.555 111.984C118.586 112.036 118.607 112.099 118.617 112.172C118.628 112.234 118.628 112.297 118.617 112.359C118.617 112.422 118.617 112.474 118.617 112.516C118.617 112.568 118.617 112.641 118.617 112.734C118.617 112.828 118.612 112.875 118.602 112.875C118.497 113.156 118.336 113.49 118.117 113.875C117.898 114.26 117.654 114.672 117.383 115.109C117.112 115.547 116.831 116.005 116.539 116.484C116.258 116.953 115.997 117.422 115.758 117.891C115.529 118.349 115.336 118.792 115.18 119.219C115.034 119.646 114.961 120.036 114.961 120.391C114.961 120.578 115.013 120.729 115.117 120.844C115.232 120.948 115.352 121.042 115.477 121.125C115.602 121.208 115.716 121.292 115.82 121.375C115.935 121.458 115.992 121.573 115.992 121.719C115.992 121.812 115.951 121.885 115.867 121.938C115.784 121.979 115.685 122 115.57 122C115.133 122 114.753 121.88 114.43 121.641C114.107 121.391 113.945 121.036 113.945 120.578ZM134.93 122.016C134.544 121.995 134.174 121.938 133.82 121.844C133.477 121.74 133.133 121.62 132.789 121.484C132.445 121.349 132.102 121.214 131.758 121.078C131.414 120.932 131.055 120.812 130.68 120.719C130.315 120.615 129.924 120.547 129.508 120.516C129.102 120.474 128.659 120.495 128.18 120.578C128.044 120.609 127.898 120.682 127.742 120.797C127.596 120.911 127.456 121.036 127.32 121.172C127.185 121.307 127.065 121.438 126.961 121.562C126.857 121.677 126.784 121.755 126.742 121.797C126.721 121.797 126.685 121.802 126.633 121.812C126.591 121.812 126.56 121.812 126.539 121.812C126.258 121.812 126.117 121.672 126.117 121.391C126.117 121.37 126.117 121.339 126.117 121.297C126.128 121.245 126.133 121.208 126.133 121.188C126.799 120.531 127.466 119.875 128.133 119.219C128.799 118.552 129.424 117.865 130.008 117.156C130.602 116.448 131.128 115.703 131.586 114.922C132.055 114.13 132.419 113.281 132.68 112.375C132.263 112.406 131.815 112.448 131.336 112.5C130.867 112.552 130.398 112.635 129.93 112.75C129.461 112.854 129.013 113 128.586 113.188C128.159 113.365 127.784 113.604 127.461 113.906C127.305 113.906 127.211 113.849 127.18 113.734C127.148 113.609 127.133 113.49 127.133 113.375C127.133 113.281 127.133 113.214 127.133 113.172C127.143 113.12 127.159 113.083 127.18 113.062C127.211 113.031 127.253 113.005 127.305 112.984C127.367 112.964 127.456 112.927 127.57 112.875C127.966 112.719 128.383 112.547 128.82 112.359C129.258 112.172 129.701 112 130.148 111.844C130.607 111.677 131.065 111.536 131.523 111.422C131.992 111.307 132.461 111.25 132.93 111.25C132.961 111.25 133.008 111.25 133.07 111.25C133.143 111.25 133.216 111.255 133.289 111.266C133.362 111.266 133.43 111.266 133.492 111.266C133.565 111.266 133.612 111.266 133.633 111.266C133.852 111.349 133.977 111.458 134.008 111.594C134.039 111.729 134.055 111.88 134.055 112.047C134.055 112.359 134.023 112.635 133.961 112.875C133.898 113.104 133.789 113.38 133.633 113.703C133.31 114.161 132.956 114.656 132.57 115.188C132.185 115.708 131.779 116.24 131.352 116.781C130.935 117.323 130.508 117.854 130.07 118.375C129.633 118.885 129.201 119.354 128.773 119.781C128.93 119.771 129.154 119.76 129.445 119.75C129.737 119.729 130.049 119.724 130.383 119.734C130.727 119.734 131.06 119.755 131.383 119.797C131.716 119.828 131.997 119.885 132.227 119.969C132.487 120.073 132.721 120.188 132.93 120.312C133.148 120.427 133.357 120.536 133.555 120.641C133.763 120.734 133.977 120.818 134.195 120.891C134.414 120.953 134.659 120.984 134.93 120.984C135.398 120.984 135.857 120.927 136.305 120.812C136.753 120.698 137.195 120.578 137.633 120.453C138.07 120.318 138.492 120.193 138.898 120.078C139.315 119.964 139.716 119.906 140.102 119.906V120.172C140.102 120.182 140.044 120.224 139.93 120.297C139.826 120.359 139.701 120.438 139.555 120.531C139.409 120.615 139.253 120.698 139.086 120.781C138.93 120.865 138.799 120.932 138.695 120.984C138.049 121.286 137.43 121.536 136.836 121.734C136.253 121.922 135.617 122.016 134.93 122.016ZM132.008 109.359C132.018 109.224 132.076 109.115 132.18 109.031C132.294 108.938 132.419 108.891 132.555 108.891C132.701 108.88 132.841 108.932 132.977 109.047C133.112 109.161 133.216 109.354 133.289 109.625C133.289 109.854 133.227 110.036 133.102 110.172C132.977 110.307 132.799 110.375 132.57 110.375C132.539 110.375 132.492 110.385 132.43 110.406C132.367 110.417 132.305 110.401 132.242 110.359C132.18 110.307 132.122 110.208 132.07 110.062C132.029 109.917 132.008 109.682 132.008 109.359ZM138.633 126.719C138.966 126.177 139.352 125.693 139.789 125.266C140.227 124.849 140.674 124.453 141.133 124.078C141.602 123.703 142.065 123.339 142.523 122.984C142.982 122.63 143.404 122.25 143.789 121.844C144.185 121.438 144.523 120.99 144.805 120.5C145.086 120 145.279 119.422 145.383 118.766C145.383 118.745 145.378 118.714 145.367 118.672C145.367 118.62 145.367 118.583 145.367 118.562C145.128 118.844 144.836 119.161 144.492 119.516C144.159 119.87 143.794 120.203 143.398 120.516C143.013 120.828 142.607 121.089 142.18 121.297C141.753 121.505 141.336 121.609 140.93 121.609C140.826 121.609 140.69 121.604 140.523 121.594C140.367 121.573 140.211 121.536 140.055 121.484C139.898 121.432 139.763 121.359 139.648 121.266C139.534 121.172 139.477 121.047 139.477 120.891C139.477 120.755 139.513 120.547 139.586 120.266C139.659 119.984 139.758 119.672 139.883 119.328C140.008 118.984 140.148 118.635 140.305 118.281C140.461 117.927 140.628 117.604 140.805 117.312C140.982 117.021 141.154 116.781 141.32 116.594C141.497 116.406 141.659 116.312 141.805 116.312C141.951 116.312 142.076 116.344 142.18 116.406C142.284 116.469 142.336 116.573 142.336 116.719C142.336 116.979 142.242 117.24 142.055 117.5C141.867 117.76 141.664 118.042 141.445 118.344C141.227 118.635 141.023 118.953 140.836 119.297C140.648 119.641 140.555 120.031 140.555 120.469C141.242 120.469 141.862 120.328 142.414 120.047C142.966 119.755 143.466 119.396 143.914 118.969C144.362 118.542 144.758 118.078 145.102 117.578C145.445 117.078 145.747 116.615 146.008 116.188C146.279 115.76 146.508 115.406 146.695 115.125C146.893 114.833 147.06 114.688 147.195 114.688C147.393 114.688 147.508 114.75 147.539 114.875C147.581 114.99 147.602 115.135 147.602 115.312C147.508 115.635 147.378 116.016 147.211 116.453C147.044 116.88 146.872 117.333 146.695 117.812C146.529 118.281 146.372 118.75 146.227 119.219C146.091 119.688 146.003 120.115 145.961 120.5C145.961 120.51 145.961 120.526 145.961 120.547C145.971 120.568 145.977 120.583 145.977 120.594C146.164 120.531 146.341 120.422 146.508 120.266C146.674 120.109 146.836 119.953 146.992 119.797C147.159 119.63 147.326 119.484 147.492 119.359C147.659 119.224 147.831 119.156 148.008 119.156C148.018 119.156 148.055 119.229 148.117 119.375C148.19 119.521 148.19 119.698 148.117 119.906C148.023 119.979 147.852 120.104 147.602 120.281C147.362 120.458 147.107 120.646 146.836 120.844C146.565 121.031 146.31 121.219 146.07 121.406C145.831 121.583 145.664 121.719 145.57 121.812C145.424 121.958 145.273 122.167 145.117 122.438C144.961 122.708 144.805 123.01 144.648 123.344C144.492 123.688 144.336 124.047 144.18 124.422C144.034 124.797 143.888 125.161 143.742 125.516C143.596 125.88 143.451 126.214 143.305 126.516C143.169 126.828 143.044 127.083 142.93 127.281C142.878 127.365 142.768 127.526 142.602 127.766C142.445 128.016 142.268 128.281 142.07 128.562C141.883 128.844 141.695 129.109 141.508 129.359C141.331 129.62 141.195 129.802 141.102 129.906C141.06 129.958 140.945 130.078 140.758 130.266C140.57 130.464 140.357 130.677 140.117 130.906C139.888 131.146 139.659 131.38 139.43 131.609C139.19 131.839 139.008 132.01 138.883 132.125C138.758 132.198 138.591 132.286 138.383 132.391C138.174 132.505 137.961 132.599 137.742 132.672C137.513 132.745 137.294 132.792 137.086 132.812C136.867 132.833 136.69 132.786 136.555 132.672C136.419 132.568 136.341 132.385 136.32 132.125C136.289 131.875 136.346 131.516 136.492 131.047C136.628 130.589 136.867 130.005 137.211 129.297C137.555 128.589 138.029 127.729 138.633 126.719ZM143.539 123.359C143.518 123.359 143.482 123.365 143.43 123.375C143.388 123.396 143.357 123.411 143.336 123.422C143.315 123.443 143.268 123.479 143.195 123.531C143.122 123.583 143.039 123.641 142.945 123.703C142.862 123.766 142.779 123.828 142.695 123.891C142.622 123.953 142.57 124 142.539 124.031C142.247 124.24 141.914 124.531 141.539 124.906C141.164 125.292 140.773 125.714 140.367 126.172C139.971 126.641 139.581 127.13 139.195 127.641C138.81 128.161 138.466 128.656 138.164 129.125C137.852 129.604 137.602 130.042 137.414 130.438C137.227 130.833 137.128 131.151 137.117 131.391C137.107 131.63 137.206 131.771 137.414 131.812C137.622 131.854 137.977 131.755 138.477 131.516C138.581 131.422 138.732 131.281 138.93 131.094C139.117 130.917 139.305 130.729 139.492 130.531C139.69 130.344 139.867 130.167 140.023 130C140.18 129.844 140.273 129.745 140.305 129.703C140.357 129.63 140.44 129.516 140.555 129.359C140.669 129.203 140.794 129.026 140.93 128.828C141.065 128.63 141.206 128.422 141.352 128.203C141.497 127.984 141.633 127.771 141.758 127.562C141.893 127.365 142.008 127.188 142.102 127.031C142.206 126.875 142.279 126.755 142.32 126.672C142.414 126.505 142.529 126.266 142.664 125.953C142.81 125.651 142.945 125.333 143.07 125C143.195 124.677 143.305 124.365 143.398 124.062C143.492 123.76 143.539 123.526 143.539 123.359ZM151.773 116.344C151.534 116.375 151.258 116.526 150.945 116.797C150.633 117.057 150.331 117.38 150.039 117.766C149.758 118.141 149.518 118.552 149.32 119C149.122 119.438 149.023 119.844 149.023 120.219C149.023 120.521 149.102 120.734 149.258 120.859C149.414 120.974 149.638 121.031 149.93 121.031C150.242 121.031 150.544 120.995 150.836 120.922C151.138 120.839 151.435 120.755 151.727 120.672C152.029 120.578 152.326 120.495 152.617 120.422C152.919 120.339 153.227 120.297 153.539 120.297C153.539 120.443 153.518 120.568 153.477 120.672C153.435 120.766 153.372 120.87 153.289 120.984C152.747 121.245 152.19 121.484 151.617 121.703C151.044 121.911 150.445 122.016 149.82 122.016C149.633 122.016 149.435 121.984 149.227 121.922C149.018 121.849 148.826 121.75 148.648 121.625C148.471 121.5 148.32 121.349 148.195 121.172C148.081 120.995 148.023 120.797 148.023 120.578C148.023 120.109 148.091 119.656 148.227 119.219C148.362 118.771 148.549 118.349 148.789 117.953C149.029 117.557 149.315 117.193 149.648 116.859C149.992 116.526 150.362 116.234 150.758 115.984V115.969C150.914 115.875 151.091 115.786 151.289 115.703C151.497 115.609 151.69 115.557 151.867 115.547C152.044 115.526 152.19 115.568 152.305 115.672C152.43 115.766 152.492 115.948 152.492 116.219C152.492 116.344 152.482 116.51 152.461 116.719C152.44 116.917 152.383 117.057 152.289 117.141C152.206 117.193 152.096 117.24 151.961 117.281C151.898 117.302 151.836 117.318 151.773 117.328V116.344ZM153.336 120.984C153.336 120.839 153.352 120.714 153.383 120.609C153.414 120.495 153.471 120.349 153.555 120.172C153.628 120.068 153.758 119.87 153.945 119.578C154.143 119.286 154.346 118.979 154.555 118.656C154.773 118.333 154.977 118.031 155.164 117.75C155.362 117.458 155.497 117.255 155.57 117.141C155.664 117.005 155.737 116.932 155.789 116.922C155.841 116.911 155.94 116.906 156.086 116.906C156.18 116.906 156.279 116.911 156.383 116.922C156.497 116.932 156.57 117.005 156.602 117.141C156.456 117.495 156.258 117.833 156.008 118.156C155.768 118.469 155.529 118.781 155.289 119.094C155.06 119.406 154.857 119.729 154.68 120.062C154.503 120.385 154.414 120.734 154.414 121.109C154.456 121.109 154.518 121.115 154.602 121.125C154.695 121.135 154.794 121.146 154.898 121.156C155.003 121.167 155.096 121.177 155.18 121.188C155.273 121.198 155.341 121.198 155.383 121.188C155.445 121.177 155.549 121.156 155.695 121.125C155.852 121.083 156.013 121.042 156.18 121C156.357 120.958 156.523 120.917 156.68 120.875C156.836 120.833 156.945 120.802 157.008 120.781C157.008 120.802 157.008 120.839 157.008 120.891C157.018 120.932 157.023 120.964 157.023 120.984C157.023 121.193 156.924 121.365 156.727 121.5C156.539 121.635 156.315 121.745 156.055 121.828C155.805 121.901 155.544 121.953 155.273 121.984C155.013 122.005 154.81 122.016 154.664 122.016C154.508 122.016 154.346 122 154.18 121.969C154.023 121.927 153.883 121.865 153.758 121.781C153.633 121.698 153.529 121.594 153.445 121.469C153.372 121.333 153.336 121.172 153.336 120.984ZM157.883 111.828C158.018 111.828 158.143 111.833 158.258 111.844C158.372 111.854 158.471 111.88 158.555 111.922C158.638 111.964 158.706 112.026 158.758 112.109C158.81 112.193 158.836 112.307 158.836 112.453C158.836 112.516 158.836 112.583 158.836 112.656C158.836 112.729 158.826 112.802 158.805 112.875C158.794 112.938 158.768 112.995 158.727 113.047C158.685 113.089 158.617 113.109 158.523 113.109C158.378 113.109 158.258 113.057 158.164 112.953C158.081 112.849 158.018 112.729 157.977 112.594C157.935 112.448 157.909 112.302 157.898 112.156C157.888 112.01 157.883 111.901 157.883 111.828ZM157.242 120.984C157.336 120.391 157.513 119.844 157.773 119.344C158.034 118.844 158.331 118.411 158.664 118.047C159.008 117.672 159.378 117.365 159.773 117.125C160.169 116.885 160.555 116.734 160.93 116.672C161.305 116.599 161.648 116.615 161.961 116.719C162.284 116.823 162.544 117.031 162.742 117.344C162.742 117.583 162.685 117.812 162.57 118.031C162.466 118.25 162.346 118.469 162.211 118.688C162.086 118.906 161.966 119.13 161.852 119.359C161.747 119.589 161.695 119.833 161.695 120.094C161.695 120.365 161.753 120.583 161.867 120.75C161.992 120.906 162.206 120.984 162.508 120.984C162.758 120.984 162.997 120.948 163.227 120.875C163.466 120.802 163.706 120.766 163.945 120.766C163.987 120.766 164.055 120.771 164.148 120.781C164.253 120.781 164.32 120.781 164.352 120.781C164.227 120.958 164.065 121.109 163.867 121.234C163.669 121.359 163.461 121.469 163.242 121.562C163.023 121.646 162.794 121.708 162.555 121.75C162.326 121.792 162.112 121.812 161.914 121.812C161.727 121.812 161.56 121.771 161.414 121.688C161.268 121.604 161.143 121.495 161.039 121.359C160.935 121.224 160.852 121.073 160.789 120.906C160.737 120.729 160.711 120.557 160.711 120.391C160.555 120.568 160.383 120.755 160.195 120.953C160.018 121.141 159.826 121.312 159.617 121.469C159.419 121.625 159.201 121.755 158.961 121.859C158.732 121.964 158.492 122.016 158.242 122.016C157.971 122.016 157.737 121.917 157.539 121.719C157.341 121.51 157.242 121.266 157.242 120.984ZM158.273 120.5C158.273 120.583 158.273 120.677 158.273 120.781C158.284 120.885 158.352 120.953 158.477 120.984C158.737 120.922 159.034 120.786 159.367 120.578C159.701 120.359 160.013 120.109 160.305 119.828C160.596 119.536 160.841 119.229 161.039 118.906C161.237 118.573 161.336 118.255 161.336 117.953C161.336 117.932 161.331 117.901 161.32 117.859C161.32 117.807 161.32 117.771 161.32 117.75C160.966 117.75 160.607 117.823 160.242 117.969C159.878 118.115 159.549 118.318 159.258 118.578C158.966 118.828 158.727 119.12 158.539 119.453C158.362 119.786 158.273 120.135 158.273 120.5Z" fill="#FBB13C"/>
<path d="M26 133C66.5253 126.501 106.06 129.96 147.115 129.617C155.724 129.545 160.39 129.607 169 129.607" stroke="#FBB13C" stroke-linecap="round" stroke-linejoin="round"/>
<path d="M13.0938 92.1719H9.78125V90.3828H20.9219V92.1719H17.6094V102H13.0938V92.1719ZM22.6172 90.3906H32.4297V92.1797H27.1406L27.1328 95.3125H31.1797V97.1016H27.1328V100.211H32.4297V102H22.6172V90.3906ZM34.7578 90.3906H37.5859L44.9531 96.5781L44.9609 90.3906H46.6797V102H43.8516L36.4766 95.8359V102H34.7578V90.3906ZM49.6484 90.3906H54.1719L54.1641 102H49.6484V90.3906ZM57.3047 99.4219C57.8568 99.7031 58.4349 99.9141 59.0391 100.055C59.6432 100.195 60.2057 100.266 60.7266 100.266C61.3255 100.266 61.763 100.18 62.0391 100.008C62.3203 99.8359 62.4609 99.6016 62.4609 99.3047C62.4609 99.2109 62.4427 99.1146 62.4062 99.0156C62.375 98.9167 62.3099 98.8203 62.2109 98.7266C62.1172 98.6276 61.9844 98.5312 61.8125 98.4375C61.6458 98.3385 61.4271 98.2422 61.1562 98.1484L59.7578 97.6719C58.7578 97.3281 58.0052 96.8646 57.5 96.2812C56.9948 95.6927 56.7422 94.9948 56.7422 94.1875C56.7422 93.6667 56.8516 93.1667 57.0703 92.6875C57.2891 92.2031 57.6198 91.7786 58.0625 91.4141C58.5052 91.0443 59.0625 90.75 59.7344 90.5312C60.4115 90.3125 61.2031 90.2031 62.1094 90.2031C62.5573 90.2031 62.987 90.2292 63.3984 90.2812C63.8099 90.3333 64.1953 90.401 64.5547 90.4844C64.9193 90.5677 65.2526 90.6641 65.5547 90.7734C65.8568 90.8776 66.1224 90.9818 66.3516 91.0859L65.5078 92.6094C65.3411 92.5052 65.1641 92.4141 64.9766 92.3359C64.7943 92.2578 64.6094 92.1927 64.4219 92.1406C64.2396 92.0885 64.0599 92.0495 63.8828 92.0234C63.7057 91.9974 63.5443 91.9844 63.3984 91.9844C63.1484 91.9844 62.9297 92.0182 62.7422 92.0859C62.5547 92.1484 62.3958 92.2344 62.2656 92.3438C62.1406 92.4479 62.0443 92.5677 61.9766 92.7031C61.9141 92.8333 61.8828 92.9635 61.8828 93.0938C61.8828 93.2083 61.9089 93.3203 61.9609 93.4297C62.0182 93.5339 62.112 93.638 62.2422 93.7422C62.3776 93.8411 62.5521 93.9427 62.7656 94.0469C62.9844 94.1458 63.2552 94.25 63.5781 94.3594L64.5156 94.6719C65.5312 95.0104 66.3073 95.4766 66.8438 96.0703C67.3802 96.6641 67.6484 97.3828 67.6484 98.2266C67.6484 98.7995 67.5182 99.3281 67.2578 99.8125C67.0026 100.297 66.6198 100.716 66.1094 101.07C65.599 101.419 64.9635 101.693 64.2031 101.891C63.4479 102.083 62.5703 102.18 61.5703 102.18C61.0911 102.18 60.6276 102.154 60.1797 102.102C59.737 102.055 59.3021 101.982 58.875 101.883C58.4531 101.784 58.0365 101.659 57.625 101.508C57.2135 101.357 56.8021 101.18 56.3906 100.977L57.3047 99.4219ZM74.6797 90.3906H81.375C82.2396 90.3906 82.9948 90.4818 83.6406 90.6641C84.2917 90.8464 84.8333 91.1016 85.2656 91.4297C85.7031 91.7578 86.0312 92.151 86.25 92.6094C86.4688 93.0677 86.5781 93.5729 86.5781 94.125C86.5781 94.8073 86.4167 95.4141 86.0938 95.9453C85.7708 96.4714 85.2917 96.8906 84.6562 97.2031L87.0938 102.008H81.9922L80.1484 97.7891H79.1953V102H74.6797V90.3906ZM79.4688 96.375C79.8385 96.375 80.1693 96.3229 80.4609 96.2188C80.7526 96.1146 81 95.9688 81.2031 95.7812C81.4062 95.5885 81.5625 95.362 81.6719 95.1016C81.7812 94.8359 81.8359 94.5469 81.8359 94.2344C81.8359 93.9219 81.7812 93.6354 81.6719 93.375C81.5625 93.1094 81.4062 92.8828 81.2031 92.6953C81 92.5026 80.7526 92.3542 80.4609 92.25C80.1693 92.1458 79.8385 92.0938 79.4688 92.0938H79.2031L79.1953 96.375H79.4688ZM91.8125 98.7266L87.875 90.3906H92.8203L95.6797 96.375L97.9844 90.3906H100.031L96.5625 98.7266V102H91.8125V98.7266ZM103.859 92.1719H100.547V90.3828H111.688V92.1719H108.375V102H103.859V92.1719ZM113.383 90.3906H116.578L120.969 96.4688L125.141 90.3906H128.25V102H123.742V96.0703L119.414 102.148L115.102 96.0703V102H113.383V90.3906ZM131.227 90.3906H135.75L135.742 102H131.227V90.3906ZM138.047 96.2031C138.047 95.651 138.117 95.1198 138.258 94.6094C138.404 94.0938 138.615 93.6146 138.891 93.1719C139.167 92.7292 139.505 92.3255 139.906 91.9609C140.307 91.5964 140.763 91.2839 141.273 91.0234C141.789 90.763 142.357 90.5625 142.977 90.4219C143.596 90.276 144.263 90.2031 144.977 90.2031C145.435 90.2031 145.872 90.2318 146.289 90.2891C146.711 90.3464 147.107 90.4271 147.477 90.5312C147.846 90.6302 148.188 90.7474 148.5 90.8828C148.818 91.013 149.104 91.151 149.359 91.2969L148.688 92.6094C148.396 92.4688 148.062 92.3516 147.688 92.2578C147.318 92.1589 146.932 92.1094 146.531 92.1094C145.995 92.1094 145.497 92.2057 145.039 92.3984C144.581 92.5911 144.185 92.8646 143.852 93.2188C143.518 93.5729 143.255 94.0026 143.062 94.5078C142.875 95.0078 142.781 95.5703 142.781 96.1953C142.781 96.8151 142.875 97.3776 143.062 97.8828C143.25 98.3828 143.508 98.8125 143.836 99.1719C144.169 99.526 144.562 99.8021 145.016 100C145.474 100.193 145.969 100.289 146.5 100.289C146.875 100.289 147.25 100.245 147.625 100.156C148 100.062 148.344 99.9401 148.656 99.7891L149.328 101.102C149.073 101.253 148.789 101.393 148.477 101.523C148.164 101.654 147.826 101.771 147.461 101.875C147.096 101.974 146.706 102.052 146.289 102.109C145.872 102.167 145.435 102.195 144.977 102.195C143.909 102.195 142.945 102.039 142.086 101.727C141.232 101.409 140.505 100.979 139.906 100.438C139.307 99.8906 138.846 99.2552 138.523 98.5312C138.206 97.8021 138.047 97.026 138.047 96.2031ZM155.562 92.0938H150.922V90.3906H161.531L156.266 100.281H161.078V102H150.117L155.562 92.0938ZM163.461 90.3906H166.289L173.656 96.5781L173.664 90.3906H175.383V102H172.555L165.18 95.8359V102H163.461V90.3906ZM180.906 98.7266L176.969 90.3906H181.914L184.773 96.375L187.078 90.3906H189.125L185.656 98.7266V102H180.906V98.7266Z" fill="#FBB13C"/>
<g filter="url(#filter1_d)">
<path fill-rule="evenodd" clip-rule="evenodd" d="M87.0906 16.5843C95.5273 26.7171 101.56 29.5686 108.795 36.0607C113.252 28.3741 117.709 26.6033 122.167 13C122.543 23.7295 115.106 34.2316 113.379 44.9615C111.541 56.3832 113.308 68.0323 111.469 79.4548C110.097 72.3394 108.726 65.2236 107.354 58.1082L96.6568 80C95.0625 69.4308 103.984 57.4958 102.39 46.9262C100.795 36.357 89.5864 27.6077 87.0903 16.5835L87.0906 16.5843ZM107.655 19.8327C110.722 19.8327 113.209 22.3201 113.209 25.3871C113.209 28.4543 110.722 30.9416 107.655 30.9416C104.588 30.9416 102.1 28.4542 102.1 25.3871C102.1 22.32 104.588 19.8327 107.655 19.8327Z" fill="black"/>
</g>
<g filter="url(#filter2_d)">
<path fill-rule="evenodd" clip-rule="evenodd" d="M80.0003 16.5843C88.4369 26.7171 94.4695 29.5686 101.704 36.0607C106.162 28.3741 110.619 26.6033 115.077 13C115.452 23.7295 108.016 34.2316 106.289 44.9615C104.45 56.3832 106.217 68.0323 104.379 79.4548C103.007 72.3394 101.636 65.2236 100.264 58.1082L89.5665 80C87.9721 69.4308 96.8939 57.4958 95.2994 46.9262C93.7051 36.357 82.496 27.6077 80 16.5835L80.0003 16.5843ZM100.565 19.8327C103.632 19.8327 106.119 22.3201 106.119 25.3871C106.119 28.4543 103.632 30.9416 100.565 30.9416C97.4974 30.9416 95.0101 28.4542 95.0101 25.3871C95.0101 22.32 97.4975 19.8327 100.565 19.8327Z" fill="#FBB13C"/>
</g>
<defs>
<filter id="filter0_d" x="141.269" y="62.6201" width="11.8108" height="11.7763" filterUnits="userSpaceOnUse" color-interpolation-filters="sRGB">
<feFlood flood-opacity="0" result="BackgroundImageFix"/>
<feColorMatrix in="SourceAlpha" type="matrix" values="0 0 0 0 0 0 0 0 0 0 0 0 0 0 0 0 0 0 127 0"/>
<feOffset dy="4"/>
<feGaussianBlur stdDeviation="2"/>
<feColorMatrix type="matrix" values="0 0 0 0 0 0 0 0 0 0 0 0 0 0 0 0 0 0 0.25 0"/>
<feBlend mode="normal" in2="BackgroundImageFix" result="effect1_dropShadow"/>
<feBlend mode="normal" in="SourceGraphic" in2="effect1_dropShadow" result="shape"/>
</filter>
<filter id="filter1_d" x="87.0903" y="13" width="41.0903" height="73" filterUnits="userSpaceOnUse" color-interpolation-filters="sRGB">
<feFlood flood-opacity="0" result="BackgroundImageFix"/>
<feColorMatrix in="SourceAlpha" type="matrix" values="0 0 0 0 0 0 0 0 0 0 0 0 0 0 0 0 0 0 127 0"/>
<feOffset dx="4" dy="4"/>
<feGaussianBlur stdDeviation="1"/>
<feColorMatrix type="matrix" values="0 0 0 0 0 0 0 0 0 0 0 0 0 0 0 0 0 0 0.25 0"/>
<feBlend mode="normal" in2="BackgroundImageFix" result="effect1_dropShadow"/>
<feBlend mode="normal" in="SourceGraphic" in2="effect1_dropShadow" result="shape"/>
</filter>
<filter id="filter2_d" x="80" y="13" width="41.0903" height="73" filterUnits="userSpaceOnUse" color-interpolation-filters="sRGB">
<feFlood flood-opacity="0" result="BackgroundImageFix"/>
<feColorMatrix in="SourceAlpha" type="matrix" values="0 0 0 0 0 0 0 0 0 0 0 0 0 0 0 0 0 0 127 0"/>
<feOffset dx="4" dy="4"/>
<feGaussianBlur stdDeviation="1"/>
<feColorMatrix type="matrix" values="0 0 0 0 0 0 0 0 0 0 0 0 0 0 0 0 0 0 0.25 0"/>
<feBlend mode="normal" in2="BackgroundImageFix" result="effect1_dropShadow"/>
<feBlend mode="normal" in="SourceGraphic" in2="effect1_dropShadow" result="shape"/>
</filter>
</defs>
</svg>
